<?xml version="1.0" encoding="UTF-8" standalone="no"?>
<!DOCTYPE svg PUBLIC "-//W3C//DTD SVG 1.1//EN"
 "http://www.w3.org/Graphics/SVG/1.1/DTD/svg11.dtd">
<!-- Generated by graphviz version 2.40.1 (20161225.0304)
 -->
<!-- Title: G Pages: 1 -->
<svg width="170pt" height="188pt"
 viewBox="0.00 0.00 170.00 188.00" xmlns="http://www.w3.org/2000/svg" xmlns:xlink="http://www.w3.org/1999/xlink">
<g id="graph0" class="graph" transform="scale(1 1) rotate(0) translate(4 184)">
<title>G</title>
<polygon fill="#ffffff" stroke="transparent" points="-4,4 -4,-184 166,-184 166,4 -4,4"/>
<!-- 3c652e5c&#45;990d&#45;4838&#45;8408&#45;11bb32830ebd -->
<g id="node1" class="node">
<title>3c652e5c&#45;990d&#45;4838&#45;8408&#45;11bb32830ebd</title>
<ellipse fill="none" stroke="#000000" cx="63" cy="-162" rx="27" ry="18"/>
<text text-anchor="middle" x="63" y="-158.3" font-family="Times,serif" font-size="14.00" fill="#000000">*</text>
</g>
<!-- 62bec7e5&#45;d159&#45;4229&#45;bd40&#45;c545850beba4 -->
<g id="node2" class="node">
<title>62bec7e5&#45;d159&#45;4229&#45;bd40&#45;c545850beba4</title>
<ellipse fill="none" stroke="#000000" cx="27" cy="-90" rx="27" ry="18"/>
<text text-anchor="middle" x="27" y="-86.3" font-family="Times,serif" font-size="14.00" fill="#000000">int</text>
</g>
<!-- 3c652e5c&#45;990d&#45;4838&#45;8408&#45;11bb32830ebd&#45;&gt;62bec7e5&#45;d159&#45;4229&#45;bd40&#45;c545850beba4 -->
<g id="edge1" class="edge">
<title>3c652e5c&#45;990d&#45;4838&#45;8408&#45;11bb32830ebd&#45;&gt;62bec7e5&#45;d159&#45;4229&#45;bd40&#45;c545850beba4</title>
<path fill="none" stroke="#000000" d="M54.2854,-144.5708C50.0403,-136.0807 44.8464,-125.6929 40.1337,-116.2674"/>
<polygon fill="#000000" stroke="#000000" points="43.237,-114.6477 35.6343,-107.2687 36.976,-117.7782 43.237,-114.6477"/>
</g>
<!-- d06557bf&#45;1152&#45;4f6c&#45;8cd2&#45;1f33fe026fd0 -->
<g id="node3" class="node">
<title>d06557bf&#45;1152&#45;4f6c&#45;8cd2&#45;1f33fe026fd0</title>
<ellipse fill="none" stroke="#000000" cx="99" cy="-90" rx="27" ry="18"/>
<text text-anchor="middle" x="99" y="-86.3" font-family="Times,serif" font-size="14.00" fill="#000000">+</text>
</g>
<!-- 3c652e5c&#45;990d&#45;4838&#45;8408&#45;11bb32830ebd&#45;&gt;d06557bf&#45;1152&#45;4f6c&#45;8cd2&#45;1f33fe026fd0 -->
<g id="edge2" class="edge">
<title>3c652e5c&#45;990d&#45;4838&#45;8408&#45;11bb32830ebd&#45;&gt;d06557bf&#45;1152&#45;4f6c&#45;8cd2&#45;1f33fe026fd0</title>
<path fill="none" stroke="#000000" d="M71.7146,-144.5708C75.9597,-136.0807 81.1536,-125.6929 85.8663,-116.2674"/>
<polygon fill="#000000" stroke="#000000" points="89.024,-117.7782 90.3657,-107.2687 82.763,-114.6477 89.024,-117.7782"/>
</g>
<!-- fdd022fc&#45;f001&#45;4df9&#45;ab7f&#45;9b2ae45f3aa0 -->
<g id="node4" class="node">
<title>fdd022fc&#45;f001&#45;4df9&#45;ab7f&#45;9b2ae45f3aa0</title>
<ellipse fill="none" stroke="#000000" cx="63" cy="-18" rx="27" ry="18"/>
<text text-anchor="middle" x="63" y="-14.3" font-family="Times,serif" font-size="14.00" fill="#000000">int</text>
</g>
<!-- d06557bf&#45;1152&#45;4f6c&#45;8cd2&#45;1f33fe026fd0&#45;&gt;fdd022fc&#45;f001&#45;4df9&#45;ab7f&#45;9b2ae45f3aa0 -->
<g id="edge3" class="edge">
<title>d06557bf&#45;1152&#45;4f6c&#45;8cd2&#45;1f33fe026fd0&#45;&gt;fdd022fc&#45;f001&#45;4df9&#45;ab7f&#45;9b2ae45f3aa0</title>
<path fill="none" stroke="#000000" d="M90.2854,-72.5708C86.0403,-64.0807 80.8464,-53.6929 76.1337,-44.2674"/>
<polygon fill="#000000" stroke="#000000" points="79.237,-42.6477 71.6343,-35.2687 72.976,-45.7782 79.237,-42.6477"/>
</g>
<!-- bf26e276&#45;591a&#45;487a&#45;b232&#45;ebfce6f79ce3 -->
<g id="node5" class="node">
<title>bf26e276&#45;591a&#45;487a&#45;b232&#45;ebfce6f79ce3</title>
<ellipse fill="none" stroke="#000000" cx="135" cy="-18" rx="27" ry="18"/>
<text text-anchor="middle" x="135" y="-14.3" font-family="Times,serif" font-size="14.00" fill="#000000">int</text>
</g>
<!-- d06557bf&#45;1152&#45;4f6c&#45;8cd2&#45;1f33fe026fd0&#45;&gt;bf26e276&#45;591a&#45;487a&#45;b232&#45;ebfce6f79ce3 -->
<g id="edge4" class="edge">
<title>d06557bf&#45;1152&#45;4f6c&#45;8cd2&#45;1f33fe026fd0&#45;&gt;bf26e276&#45;591a&#45;487a&#45;b232&#45;ebfce6f79ce3</title>
<path fill="none" stroke="#000000" d="M107.7146,-72.5708C111.9597,-64.0807 117.1536,-53.6929 121.8663,-44.2674"/>
<polygon fill="#000000" stroke="#000000" points="125.024,-45.7782 126.3657,-35.2687 118.763,-42.6477 125.024,-45.7782"/>
</g>
</g>
</svg>
