<?xml version="1.0" encoding="UTF-8" standalone="no"?>
<!DOCTYPE svg PUBLIC "-//W3C//DTD SVG 1.1//EN"
 "http://www.w3.org/Graphics/SVG/1.1/DTD/svg11.dtd">
<!-- Generated by graphviz version 2.40.1 (20161225.0304)
 -->
<!-- Title: G Pages: 1 -->
<svg width="609pt" height="45pt"
 viewBox="7.20 7.20 601.70 38.20" xmlns="http://www.w3.org/2000/svg" xmlns:xlink="http://www.w3.org/1999/xlink">
<g id="graph0" class="graph" transform="scale(1 1) rotate(0) translate(11.2 34.2)">
<title>G</title>
<polygon fill="#ffffff" stroke="transparent" points="-4,4 -4,-27 590.5,-27 590.5,4 -4,4"/>
<!-- 0 -->
<g id="node1" class="node">
<title>0</title>
<polygon fill="none" stroke="#000000" points="22,-23 0,-23 0,0 22,0 22,-23"/>
<text text-anchor="middle" x="11" y="-7.8" font-family="Times,serif" font-size="14.00" fill="#000000">i</text>
</g>
<!-- 1 -->
<g id="node2" class="node">
<title>1</title>
<polygon fill="none" stroke="#000000" points="48,-23 26,-23 26,0 48,0 48,-23"/>
<text text-anchor="middle" x="37" y="-7.8" font-family="Times,serif" font-size="14.00" fill="#000000">f</text>
</g>
<!-- 2 -->
<g id="node3" class="node">
<title>2</title>
<polygon fill="none" stroke="#000000" points="78,-23 52,-23 52,0 78,0 78,-23"/>
<text text-anchor="middle" x="65" y="-7.8" font-family="Times,serif" font-size="14.00" fill="#000000">\s</text>
</g>
<!-- 3 -->
<g id="node4" class="node">
<title>3</title>
<polygon fill="none" stroke="#000000" points="104,-23 82,-23 82,0 104,0 104,-23"/>
<text text-anchor="middle" x="93" y="-7.8" font-family="Times,serif" font-size="14.00" fill="#000000">(</text>
</g>
<!-- 4 -->
<g id="node5" class="node">
<title>4</title>
<polygon fill="none" stroke="#000000" points="131.5,-23 108.5,-23 108.5,0 131.5,0 131.5,-23"/>
<text text-anchor="middle" x="120" y="-7.8" font-family="Times,serif" font-size="14.00" fill="#000000">a</text>
</g>
<!-- 5 -->
<g id="node6" class="node">
<title>5</title>
<polygon fill="none" stroke="#000000" points="160.5,-23 135.5,-23 135.5,0 160.5,0 160.5,-23"/>
<text text-anchor="middle" x="148" y="-7.8" font-family="Times,serif" font-size="14.00" fill="#000000">&lt;</text>
</g>
<!-- 6 -->
<g id="node7" class="node">
<title>6</title>
<polygon fill="none" stroke="#000000" points="189.5,-23 164.5,-23 164.5,0 189.5,0 189.5,-23"/>
<text text-anchor="middle" x="177" y="-7.8" font-family="Times,serif" font-size="14.00" fill="#000000">=</text>
</g>
<!-- 7 -->
<g id="node8" class="node">
<title>7</title>
<polygon fill="none" stroke="#000000" points="216.5,-23 193.5,-23 193.5,0 216.5,0 216.5,-23"/>
<text text-anchor="middle" x="205" y="-7.8" font-family="Times,serif" font-size="14.00" fill="#000000">0</text>
</g>
<!-- 8 -->
<g id="node9" class="node">
<title>8</title>
<polygon fill="none" stroke="#000000" points="243,-23 221,-23 221,0 243,0 243,-23"/>
<text text-anchor="middle" x="232" y="-7.8" font-family="Times,serif" font-size="14.00" fill="#000000">)</text>
</g>
<!-- 9 -->
<g id="node10" class="node">
<title>9</title>
<polygon fill="none" stroke="#000000" points="274.5,-23 247.5,-23 247.5,0 274.5,0 274.5,-23"/>
<text text-anchor="middle" x="261" y="-7.8" font-family="Times,serif" font-size="14.00" fill="#000000">\n</text>
</g>
<!-- 10 -->
<g id="node11" class="node">
<title>10</title>
<polygon fill="none" stroke="#000000" points="303,-23 279,-23 279,0 303,0 303,-23"/>
<text text-anchor="middle" x="291" y="-7.8" font-family="Times,serif" font-size="14.00" fill="#000000">\t</text>
</g>
<!-- 11 -->
<g id="node12" class="node">
<title>11</title>
<polygon fill="none" stroke="#000000" points="330.5,-23 307.5,-23 307.5,0 330.5,0 330.5,-23"/>
<text text-anchor="middle" x="319" y="-7.8" font-family="Times,serif" font-size="14.00" fill="#000000">b</text>
</g>
<!-- 12 -->
<g id="node13" class="node">
<title>12</title>
<polygon fill="none" stroke="#000000" points="361.5,-23 334.5,-23 334.5,0 361.5,0 361.5,-23"/>
<text text-anchor="middle" x="348" y="-7.8" font-family="Times,serif" font-size="14.00" fill="#000000">\n</text>
</g>
<!-- 13 -->
<g id="node14" class="node">
<title>13</title>
<polygon fill="none" stroke="#000000" points="388.5,-23 365.5,-23 365.5,0 388.5,0 388.5,-23"/>
<text text-anchor="middle" x="377" y="-7.8" font-family="Times,serif" font-size="14.00" fill="#000000">e</text>
</g>
<!-- 14 -->
<g id="node15" class="node">
<title>14</title>
<polygon fill="none" stroke="#000000" points="415,-23 393,-23 393,0 415,0 415,-23"/>
<text text-anchor="middle" x="404" y="-7.8" font-family="Times,serif" font-size="14.00" fill="#000000">l</text>
</g>
<!-- 15 -->
<g id="node16" class="node">
<title>15</title>
<polygon fill="none" stroke="#000000" points="441,-23 419,-23 419,0 441,0 441,-23"/>
<text text-anchor="middle" x="430" y="-7.8" font-family="Times,serif" font-size="14.00" fill="#000000">s</text>
</g>
<!-- 16 -->
<g id="node17" class="node">
<title>16</title>
<polygon fill="none" stroke="#000000" points="468.5,-23 445.5,-23 445.5,0 468.5,0 468.5,-23"/>
<text text-anchor="middle" x="457" y="-7.8" font-family="Times,serif" font-size="14.00" fill="#000000">e</text>
</g>
<!-- 17 -->
<g id="node18" class="node">
<title>17</title>
<polygon fill="none" stroke="#000000" points="499.5,-23 472.5,-23 472.5,0 499.5,0 499.5,-23"/>
<text text-anchor="middle" x="486" y="-7.8" font-family="Times,serif" font-size="14.00" fill="#000000">\n</text>
</g>
<!-- 18 -->
<g id="node19" class="node">
<title>18</title>
<polygon fill="none" stroke="#000000" points="528,-23 504,-23 504,0 528,0 528,-23"/>
<text text-anchor="middle" x="516" y="-7.8" font-family="Times,serif" font-size="14.00" fill="#000000">\t</text>
</g>
<!-- 19 -->
<g id="node20" class="node">
<title>19</title>
<polygon fill="none" stroke="#000000" points="555.5,-23 532.5,-23 532.5,0 555.5,0 555.5,-23"/>
<text text-anchor="middle" x="544" y="-7.8" font-family="Times,serif" font-size="14.00" fill="#000000">c</text>
</g>
<!-- 20 -->
<g id="node21" class="node">
<title>20</title>
<polygon fill="none" stroke="#000000" points="586.5,-23 559.5,-23 559.5,0 586.5,0 586.5,-23"/>
<text text-anchor="middle" x="573" y="-7.8" font-family="Times,serif" font-size="14.00" fill="#000000">\n</text>
</g>
</g>
</svg>
