<?xml version="1.0" encoding="UTF-8" standalone="no"?>
<!DOCTYPE svg PUBLIC "-//W3C//DTD SVG 1.1//EN"
 "http://www.w3.org/Graphics/SVG/1.1/DTD/svg11.dtd">
<!-- Generated by graphviz version 2.40.1 (20161225.0304)
 -->
<!-- Title: G Pages: 1 -->
<svg width="464pt" height="268pt"
 viewBox="7.20 7.20 456.58 261.30" xmlns="http://www.w3.org/2000/svg" xmlns:xlink="http://www.w3.org/1999/xlink">
<g id="graph0" class="graph" transform="scale(1 1) rotate(0) translate(11.2 257.2957)">
<title>G</title>
<polygon fill="#ffffff" stroke="transparent" points="-4,4 -4,-250.0957 445.3795,-250.0957 445.3795,4 -4,4"/>
<!-- start -->
<g id="node1" class="node">
<title>start</title>
</g>
<!-- q0 -->
<g id="node2" class="node">
<title>q0</title>
<ellipse fill="none" stroke="#000000" cx="57.4983" cy="-123.0479" rx="19.4965" ry="19.4965"/>
<text text-anchor="middle" x="57.4983" y="-119.3479" font-family="Times,serif" font-size="14.00" fill="#000000">q0</text>
</g>
<!-- start&#45;&gt;q0 -->
<g id="edge13" class="edge">
<title>start&#45;&gt;q0</title>
<path fill="none" stroke="#000000" stroke-dasharray="5,2" d="M1.1401,-123.0479C3.9684,-123.0479 15.7387,-123.0479 27.7966,-123.0479"/>
<polygon fill="#000000" stroke="#000000" points="27.8029,-126.548 37.8029,-123.0479 27.8029,-119.548 27.8029,-126.548"/>
</g>
<!-- q01 -->
<g id="node3" class="node">
<title>q01</title>
<ellipse fill="none" stroke="#000000" cx="144.0444" cy="-222.0479" rx="24.0958" ry="24.0958"/>
<text text-anchor="middle" x="144.0444" y="-218.3479" font-family="Times,serif" font-size="14.00" fill="#000000">q01</text>
</g>
<!-- q0&#45;&gt;q01 -->
<g id="edge1" class="edge">
<title>q0&#45;&gt;q01</title>
<path fill="none" stroke="#000000" d="M70.6428,-138.0838C84.1314,-153.5135 105.3736,-177.8123 121.543,-196.3086"/>
<polygon fill="#000000" stroke="#000000" points="118.9081,-198.6123 128.1248,-203.8375 124.1782,-194.0051 118.9081,-198.6123"/>
<text text-anchor="middle" x="98.4965" y="-175.8479" font-family="Times,serif" font-size="14.00" fill="#000000">i</text>
</g>
<!-- q03 -->
<g id="node5" class="node">
<title>q03</title>
<ellipse fill="none" stroke="#000000" cx="144.0444" cy="-156.0479" rx="24.0958" ry="24.0958"/>
<text text-anchor="middle" x="144.0444" y="-152.3479" font-family="Times,serif" font-size="14.00" fill="#000000">q03</text>
</g>
<!-- q0&#45;&gt;q03 -->
<g id="edge3" class="edge">
<title>q0&#45;&gt;q03</title>
<path fill="none" stroke="#000000" d="M75.8525,-130.0463C86.3453,-134.0472 99.8034,-139.1788 111.9873,-143.8245"/>
<polygon fill="#000000" stroke="#000000" points="110.8135,-147.1227 121.4044,-147.4152 113.3075,-140.582 110.8135,-147.1227"/>
<text text-anchor="middle" x="98.4965" y="-142.8479" font-family="Times,serif" font-size="14.00" fill="#000000">t</text>
</g>
<!-- q07 -->
<g id="node9" class="node">
<title>q07</title>
<ellipse fill="none" stroke="#000000" cx="144.0444" cy="-90.0479" rx="24.0958" ry="24.0958"/>
<text text-anchor="middle" x="144.0444" y="-86.3479" font-family="Times,serif" font-size="14.00" fill="#000000">q07</text>
</g>
<!-- q0&#45;&gt;q07 -->
<g id="edge7" class="edge">
<title>q0&#45;&gt;q07</title>
<path fill="none" stroke="#000000" d="M75.8525,-116.0494C86.3453,-112.0485 99.8034,-106.917 111.9873,-102.2712"/>
<polygon fill="#000000" stroke="#000000" points="113.3075,-105.5137 121.4044,-98.6805 110.8135,-98.973 113.3075,-105.5137"/>
<text text-anchor="middle" x="98.4965" y="-111.8479" font-family="Times,serif" font-size="14.00" fill="#000000">e</text>
</g>
<!-- q11 -->
<g id="node13" class="node">
<title>q11</title>
<ellipse fill="none" stroke="#000000" cx="144.0444" cy="-24.0479" rx="24.0958" ry="24.0958"/>
<text text-anchor="middle" x="144.0444" y="-20.3479" font-family="Times,serif" font-size="14.00" fill="#000000">q11</text>
</g>
<!-- q0&#45;&gt;q11 -->
<g id="edge11" class="edge">
<title>q0&#45;&gt;q11</title>
<path fill="none" stroke="#000000" d="M70.6428,-108.0119C84.1314,-92.5822 105.3736,-68.2834 121.543,-49.7872"/>
<polygon fill="#000000" stroke="#000000" points="124.1782,-52.0906 128.1248,-42.2582 118.9081,-47.4834 124.1782,-52.0906"/>
<text text-anchor="middle" x="98.4965" y="-83.8479" font-family="Times,serif" font-size="14.00" fill="#000000">f</text>
</g>
<!-- q02 -->
<g id="node4" class="node">
<title>q02</title>
<ellipse fill="none" stroke="#000000" stroke-width="2" cx="235.1401" cy="-222.0479" rx="24.0958" ry="24.0958"/>
<text text-anchor="middle" x="235.1401" y="-218.3479" font-family="Times,serif" font-size="14.00" fill="#000000">q02</text>
</g>
<!-- q01&#45;&gt;q02 -->
<g id="edge2" class="edge">
<title>q01&#45;&gt;q02</title>
<path fill="none" stroke="#000000" d="M168.4564,-222.0479C178.3381,-222.0479 189.9252,-222.0479 200.6434,-222.0479"/>
<polygon fill="#000000" stroke="#000000" points="200.9767,-225.548 210.9766,-222.0479 200.9766,-218.548 200.9767,-225.548"/>
<text text-anchor="middle" x="189.5923" y="-225.8479" font-family="Times,serif" font-size="14.00" fill="#000000">f</text>
</g>
<!-- q04 -->
<g id="node6" class="node">
<title>q04</title>
<ellipse fill="none" stroke="#000000" cx="235.1401" cy="-156.0479" rx="24.0958" ry="24.0958"/>
<text text-anchor="middle" x="235.1401" y="-152.3479" font-family="Times,serif" font-size="14.00" fill="#000000">q04</text>
</g>
<!-- q03&#45;&gt;q04 -->
<g id="edge4" class="edge">
<title>q03&#45;&gt;q04</title>
<path fill="none" stroke="#000000" d="M168.4564,-156.0479C178.3381,-156.0479 189.9252,-156.0479 200.6434,-156.0479"/>
<polygon fill="#000000" stroke="#000000" points="200.9767,-159.548 210.9766,-156.0479 200.9766,-152.548 200.9767,-159.548"/>
<text text-anchor="middle" x="189.5923" y="-159.8479" font-family="Times,serif" font-size="14.00" fill="#000000">h</text>
</g>
<!-- q05 -->
<g id="node7" class="node">
<title>q05</title>
<ellipse fill="none" stroke="#000000" cx="326.2359" cy="-156.0479" rx="24.0958" ry="24.0958"/>
<text text-anchor="middle" x="326.2359" y="-152.3479" font-family="Times,serif" font-size="14.00" fill="#000000">q05</text>
</g>
<!-- q04&#45;&gt;q05 -->
<g id="edge5" class="edge">
<title>q04&#45;&gt;q05</title>
<path fill="none" stroke="#000000" d="M259.5521,-156.0479C269.4338,-156.0479 281.0209,-156.0479 291.7392,-156.0479"/>
<polygon fill="#000000" stroke="#000000" points="292.0724,-159.548 302.0724,-156.0479 292.0723,-152.548 292.0724,-159.548"/>
<text text-anchor="middle" x="280.688" y="-159.8479" font-family="Times,serif" font-size="14.00" fill="#000000">e</text>
</g>
<!-- q06 -->
<g id="node8" class="node">
<title>q06</title>
<ellipse fill="none" stroke="#000000" stroke-width="2" cx="417.3316" cy="-156.0479" rx="24.0958" ry="24.0958"/>
<text text-anchor="middle" x="417.3316" y="-152.3479" font-family="Times,serif" font-size="14.00" fill="#000000">q06</text>
</g>
<!-- q05&#45;&gt;q06 -->
<g id="edge6" class="edge">
<title>q05&#45;&gt;q06</title>
<path fill="none" stroke="#000000" d="M350.6479,-156.0479C360.5296,-156.0479 372.1167,-156.0479 382.8349,-156.0479"/>
<polygon fill="#000000" stroke="#000000" points="383.1681,-159.548 393.1681,-156.0479 383.1681,-152.548 383.1681,-159.548"/>
<text text-anchor="middle" x="371.7837" y="-159.8479" font-family="Times,serif" font-size="14.00" fill="#000000">n</text>
</g>
<!-- q08 -->
<g id="node10" class="node">
<title>q08</title>
<ellipse fill="none" stroke="#000000" cx="235.1401" cy="-90.0479" rx="24.0958" ry="24.0958"/>
<text text-anchor="middle" x="235.1401" y="-86.3479" font-family="Times,serif" font-size="14.00" fill="#000000">q08</text>
</g>
<!-- q07&#45;&gt;q08 -->
<g id="edge8" class="edge">
<title>q07&#45;&gt;q08</title>
<path fill="none" stroke="#000000" d="M168.4564,-90.0479C178.3381,-90.0479 189.9252,-90.0479 200.6434,-90.0479"/>
<polygon fill="#000000" stroke="#000000" points="200.9767,-93.548 210.9766,-90.0479 200.9766,-86.548 200.9767,-93.548"/>
<text text-anchor="middle" x="189.5923" y="-93.8479" font-family="Times,serif" font-size="14.00" fill="#000000">l</text>
</g>
<!-- q09 -->
<g id="node11" class="node">
<title>q09</title>
<ellipse fill="none" stroke="#000000" cx="326.2359" cy="-90.0479" rx="24.0958" ry="24.0958"/>
<text text-anchor="middle" x="326.2359" y="-86.3479" font-family="Times,serif" font-size="14.00" fill="#000000">q09</text>
</g>
<!-- q08&#45;&gt;q09 -->
<g id="edge9" class="edge">
<title>q08&#45;&gt;q09</title>
<path fill="none" stroke="#000000" d="M259.5521,-90.0479C269.4338,-90.0479 281.0209,-90.0479 291.7392,-90.0479"/>
<polygon fill="#000000" stroke="#000000" points="292.0724,-93.548 302.0724,-90.0479 292.0723,-86.548 292.0724,-93.548"/>
<text text-anchor="middle" x="280.688" y="-93.8479" font-family="Times,serif" font-size="14.00" fill="#000000">s</text>
</g>
<!-- q10 -->
<g id="node12" class="node">
<title>q10</title>
<ellipse fill="none" stroke="#000000" stroke-width="2" cx="417.3316" cy="-90.0479" rx="24.0958" ry="24.0958"/>
<text text-anchor="middle" x="417.3316" y="-86.3479" font-family="Times,serif" font-size="14.00" fill="#000000">q10</text>
</g>
<!-- q09&#45;&gt;q10 -->
<g id="edge10" class="edge">
<title>q09&#45;&gt;q10</title>
<path fill="none" stroke="#000000" d="M350.6479,-90.0479C360.5296,-90.0479 372.1167,-90.0479 382.8349,-90.0479"/>
<polygon fill="#000000" stroke="#000000" points="383.1681,-93.548 393.1681,-90.0479 383.1681,-86.548 383.1681,-93.548"/>
<text text-anchor="middle" x="371.7837" y="-93.8479" font-family="Times,serif" font-size="14.00" fill="#000000">e</text>
</g>
<!-- q12 -->
<g id="node14" class="node">
<title>q12</title>
<ellipse fill="none" stroke="#000000" stroke-width="2" cx="235.1401" cy="-24.0479" rx="24.0958" ry="24.0958"/>
<text text-anchor="middle" x="235.1401" y="-20.3479" font-family="Times,serif" font-size="14.00" fill="#000000">q12</text>
</g>
<!-- q11&#45;&gt;q12 -->
<g id="edge12" class="edge">
<title>q11&#45;&gt;q12</title>
<path fill="none" stroke="#000000" d="M168.4564,-24.0479C178.3381,-24.0479 189.9252,-24.0479 200.6434,-24.0479"/>
<polygon fill="#000000" stroke="#000000" points="200.9767,-27.548 210.9766,-24.0479 200.9766,-20.548 200.9767,-27.548"/>
<text text-anchor="middle" x="189.5923" y="-27.8479" font-family="Times,serif" font-size="14.00" fill="#000000">i</text>
</g>
</g>
</svg>
