<?xml version="1.0" encoding="UTF-8" standalone="no"?>
<!DOCTYPE svg PUBLIC "-//W3C//DTD SVG 1.1//EN"
 "http://www.w3.org/Graphics/SVG/1.1/DTD/svg11.dtd">
<!-- Generated by graphviz version 2.40.1 (20161225.0304)
 -->
<!-- Title: G Pages: 1 -->
<svg width="550pt" height="106pt"
 viewBox="7.20 7.20 543.20 99.20" xmlns="http://www.w3.org/2000/svg" xmlns:xlink="http://www.w3.org/1999/xlink">
<g id="graph0" class="graph" transform="scale(1 1) rotate(0) translate(11.2 95.2)">
<title>G</title>
<polygon fill="#ffffff" stroke="transparent" points="-4,4 -4,-88 532,-88 532,4 -4,4"/>
<!-- 0 -->
<g id="node1" class="node">
<title>0</title>
<polygon fill="none" stroke="#000000" points="54,-36 0,-36 0,0 54,0 54,-36"/>
<text text-anchor="middle" x="27" y="-14.3" font-family="Times,serif" font-size="14.00" fill="#000000">HULK</text>
</g>
<!-- 1 -->
<g id="node2" class="node">
<title>1</title>
<polygon fill="none" stroke="#000000" points="208,-36 124,-36 124,0 208,0 208,-36"/>
<text text-anchor="middle" x="166" y="-14.3" font-family="Times,serif" font-size="14.00" fill="#000000">AST&#45;HULK</text>
</g>
<!-- 0&#45;&gt;1 -->
<g id="edge1" class="edge">
<title>0&#45;&gt;1</title>
<path fill="none" stroke="#000000" d="M54.1306,-18C71.0951,-18 93.5061,-18 113.8114,-18"/>
<polygon fill="#000000" stroke="#000000" points="113.8865,-21.5001 123.8865,-18 113.8865,-14.5001 113.8865,-21.5001"/>
<text text-anchor="middle" x="89" y="-36.8" font-family="Times,serif" font-size="14.00" fill="#000000">Parser</text>
<text text-anchor="middle" x="89" y="-21.8" font-family="Times,serif" font-size="14.00" fill="#000000">Lexer</text>
</g>
<!-- 1&#45;&gt;1 -->
<g id="edge2" class="edge">
<title>1&#45;&gt;1</title>
<path fill="none" stroke="#000000" d="M152.251,-36.1527C150.1357,-45.5391 154.7188,-54 166,-54 172.8745,-54 177.2617,-50.8581 179.1616,-46.2796"/>
<polygon fill="#000000" stroke="#000000" points="182.664,-46.3386 179.749,-36.1527 175.6757,-45.9332 182.664,-46.3386"/>
<text text-anchor="middle" x="166" y="-72.8" font-family="Times,serif" font-size="14.00" fill="#000000">Sem치ntica</text>
<text text-anchor="middle" x="166" y="-57.8" font-family="Times,serif" font-size="14.00" fill="#000000">Inferencia</text>
</g>
<!-- 2 -->
<g id="node3" class="node">
<title>2</title>
<polygon fill="none" stroke="#000000" points="375,-36 307,-36 307,0 375,0 375,-36"/>
<text text-anchor="middle" x="341" y="-14.3" font-family="Times,serif" font-size="14.00" fill="#000000">AST&#45;CIL</text>
</g>
<!-- 1&#45;&gt;2 -->
<g id="edge3" class="edge">
<title>1&#45;&gt;2</title>
<path fill="none" stroke="#000000" d="M208.3626,-18C235.1819,-18 269.792,-18 296.9327,-18"/>
<polygon fill="#000000" stroke="#000000" points="296.9371,-21.5001 306.9371,-18 296.937,-14.5001 296.9371,-21.5001"/>
<text text-anchor="middle" x="257.5" y="-21.8" font-family="Times,serif" font-size="14.00" fill="#000000">Generaci칩n</text>
</g>
<!-- 2&#45;&gt;2 -->
<g id="edge4" class="edge">
<title>2&#45;&gt;2</title>
<path fill="none" stroke="#000000" d="M326.1655,-36.1527C323.8833,-45.5391 328.8281,-54 341,-54 348.4172,-54 353.1508,-50.8581 355.2007,-46.2796"/>
<polygon fill="#000000" stroke="#000000" points="358.7029,-46.3518 355.8345,-36.1527 351.7166,-45.9145 358.7029,-46.3518"/>
<text text-anchor="middle" x="341" y="-57.8" font-family="Times,serif" font-size="14.00" fill="#000000">Optimizaci칩n</text>
</g>
<!-- 3 -->
<g id="node4" class="node">
<title>3</title>
<polygon fill="none" stroke="#000000" points="528,-36 474,-36 474,0 528,0 528,-36"/>
<text text-anchor="middle" x="501" y="-14.3" font-family="Times,serif" font-size="14.00" fill="#000000">MIPS</text>
</g>
<!-- 2&#45;&gt;3 -->
<g id="edge5" class="edge">
<title>2&#45;&gt;3</title>
<path fill="none" stroke="#000000" d="M375.324,-18C401.345,-18 437.0616,-18 463.7697,-18"/>
<polygon fill="#000000" stroke="#000000" points="463.8858,-21.5001 473.8858,-18 463.8857,-14.5001 463.8858,-21.5001"/>
<text text-anchor="middle" x="424.5" y="-21.8" font-family="Times,serif" font-size="14.00" fill="#000000">Generaci칩n</text>
</g>
</g>
</svg>
