<?xml version="1.0" encoding="UTF-8" standalone="no"?>
<!DOCTYPE svg PUBLIC "-//W3C//DTD SVG 1.1//EN"
 "http://www.w3.org/Graphics/SVG/1.1/DTD/svg11.dtd">
<!-- Generated by graphviz version 2.40.1 (20161225.0304)
 -->
<!-- Title: G Pages: 1 -->
<svg width="427pt" height="94pt"
 viewBox="7.20 7.20 420.18 87.20" xmlns="http://www.w3.org/2000/svg" xmlns:xlink="http://www.w3.org/1999/xlink">
<g id="graph0" class="graph" transform="scale(1 1) rotate(0) translate(11.2 83.1965)">
<title>G</title>
<polygon fill="#ffffff" stroke="transparent" points="-4,4 -4,-75.9965 408.9827,-75.9965 408.9827,4 -4,4"/>
<!-- start -->
<g id="node1" class="node">
<title>start</title>
</g>
<!-- q0 -->
<g id="node2" class="node">
<title>q0</title>
<ellipse fill="none" stroke="#000000" cx="57.4983" cy="-19.4983" rx="19.4965" ry="19.4965"/>
<text text-anchor="middle" x="57.4983" y="-15.7983" font-family="Times,serif" font-size="14.00" fill="#000000">q0</text>
</g>
<!-- start&#45;&gt;q0 -->
<g id="edge10" class="edge">
<title>start&#45;&gt;q0</title>
<path fill="none" stroke="#000000" stroke-dasharray="5,2" d="M1.1401,-19.4983C3.9684,-19.4983 15.7387,-19.4983 27.7966,-19.4983"/>
<polygon fill="#000000" stroke="#000000" points="27.8029,-22.9984 37.8029,-19.4983 27.8029,-15.9984 27.8029,-22.9984"/>
</g>
<!-- q0&#45;&gt;q0 -->
<g id="edge5" class="edge">
<title>q0&#45;&gt;q0</title>
<path fill="none" stroke="#000000" d="M51.0268,-38.0201C49.927,-47.95 52.0842,-56.9965 57.4983,-56.9965 60.8821,-56.9965 62.9936,-53.4627 63.833,-48.3881"/>
<polygon fill="#000000" stroke="#000000" points="67.3374,-48.0654 63.9698,-38.0201 60.338,-47.973 67.3374,-48.0654"/>
<text text-anchor="middle" x="57.4983" y="-60.7965" font-family="Times,serif" font-size="14.00" fill="#000000">b</text>
</g>
<!-- q1 -->
<g id="node3" class="node">
<title>q1</title>
<ellipse fill="none" stroke="#000000" cx="139.4948" cy="-19.4983" rx="19.4965" ry="19.4965"/>
<text text-anchor="middle" x="139.4948" y="-15.7983" font-family="Times,serif" font-size="14.00" fill="#000000">q1</text>
</g>
<!-- q0&#45;&gt;q1 -->
<g id="edge1" class="edge">
<title>q0&#45;&gt;q1</title>
<path fill="none" stroke="#000000" d="M77.3473,-19.4983C87.0163,-19.4983 98.8463,-19.4983 109.5804,-19.4983"/>
<polygon fill="#000000" stroke="#000000" points="109.8286,-22.9984 119.8285,-19.4983 109.8285,-15.9984 109.8286,-22.9984"/>
<text text-anchor="middle" x="98.4965" y="-23.2983" font-family="Times,serif" font-size="14.00" fill="#000000">a</text>
</g>
<!-- q1&#45;&gt;q1 -->
<g id="edge6" class="edge">
<title>q1&#45;&gt;q1</title>
<path fill="none" stroke="#000000" d="M132.3043,-38.0201C131.0823,-47.95 133.4792,-56.9965 139.4948,-56.9965 143.2546,-56.9965 145.6008,-53.4627 146.5334,-48.3881"/>
<polygon fill="#000000" stroke="#000000" points="150.0383,-48.0703 146.6854,-38.0201 143.039,-47.9676 150.0383,-48.0703"/>
<text text-anchor="middle" x="139.4948" y="-60.7965" font-family="Times,serif" font-size="14.00" fill="#000000">b</text>
</g>
<!-- q2 -->
<g id="node4" class="node">
<title>q2</title>
<ellipse fill="none" stroke="#000000" cx="221.4913" cy="-19.4983" rx="19.4965" ry="19.4965"/>
<text text-anchor="middle" x="221.4913" y="-15.7983" font-family="Times,serif" font-size="14.00" fill="#000000">q2</text>
</g>
<!-- q1&#45;&gt;q2 -->
<g id="edge2" class="edge">
<title>q1&#45;&gt;q2</title>
<path fill="none" stroke="#000000" d="M159.3439,-19.4983C169.0128,-19.4983 180.8429,-19.4983 191.5769,-19.4983"/>
<polygon fill="#000000" stroke="#000000" points="191.8251,-22.9984 201.8251,-19.4983 191.825,-15.9984 191.8251,-22.9984"/>
<text text-anchor="middle" x="180.4931" y="-23.2983" font-family="Times,serif" font-size="14.00" fill="#000000">a</text>
</g>
<!-- q2&#45;&gt;q2 -->
<g id="edge7" class="edge">
<title>q2&#45;&gt;q2</title>
<path fill="none" stroke="#000000" d="M214.3008,-38.0201C213.0789,-47.95 215.4757,-56.9965 221.4913,-56.9965 225.2511,-56.9965 227.5973,-53.4627 228.5299,-48.3881"/>
<polygon fill="#000000" stroke="#000000" points="232.0348,-48.0703 228.6819,-38.0201 225.0356,-47.9676 232.0348,-48.0703"/>
<text text-anchor="middle" x="221.4913" y="-60.7965" font-family="Times,serif" font-size="14.00" fill="#000000">b</text>
</g>
<!-- q3 -->
<g id="node5" class="node">
<title>q3</title>
<ellipse fill="none" stroke="#000000" stroke-width="2" cx="303.4879" cy="-19.4983" rx="19.4965" ry="19.4965"/>
<text text-anchor="middle" x="303.4879" y="-15.7983" font-family="Times,serif" font-size="14.00" fill="#000000">q3</text>
</g>
<!-- q2&#45;&gt;q3 -->
<g id="edge3" class="edge">
<title>q2&#45;&gt;q3</title>
<path fill="none" stroke="#000000" d="M241.3404,-19.4983C251.0093,-19.4983 262.8394,-19.4983 273.5735,-19.4983"/>
<polygon fill="#000000" stroke="#000000" points="273.8216,-22.9984 283.8216,-19.4983 273.8216,-15.9984 273.8216,-22.9984"/>
<text text-anchor="middle" x="262.4896" y="-23.2983" font-family="Times,serif" font-size="14.00" fill="#000000">a</text>
</g>
<!-- q3&#45;&gt;q3 -->
<g id="edge8" class="edge">
<title>q3&#45;&gt;q3</title>
<path fill="none" stroke="#000000" d="M296.2973,-38.0201C295.0754,-47.95 297.4723,-56.9965 303.4879,-56.9965 307.2477,-56.9965 309.5938,-53.4627 310.5264,-48.3881"/>
<polygon fill="#000000" stroke="#000000" points="314.0314,-48.0703 310.6784,-38.0201 307.0321,-47.9676 314.0314,-48.0703"/>
<text text-anchor="middle" x="303.4879" y="-60.7965" font-family="Times,serif" font-size="14.00" fill="#000000">b</text>
</g>
<!-- q4 -->
<g id="node6" class="node">
<title>q4</title>
<ellipse fill="none" stroke="#000000" cx="385.4844" cy="-19.4983" rx="19.4965" ry="19.4965"/>
<text text-anchor="middle" x="385.4844" y="-15.7983" font-family="Times,serif" font-size="14.00" fill="#000000">q4</text>
</g>
<!-- q3&#45;&gt;q4 -->
<g id="edge4" class="edge">
<title>q3&#45;&gt;q4</title>
<path fill="none" stroke="#000000" d="M323.337,-19.4983C333.0059,-19.4983 344.836,-19.4983 355.57,-19.4983"/>
<polygon fill="#000000" stroke="#000000" points="355.8182,-22.9984 365.8181,-19.4983 355.8181,-15.9984 355.8182,-22.9984"/>
<text text-anchor="middle" x="344.4862" y="-23.2983" font-family="Times,serif" font-size="14.00" fill="#000000">a</text>
</g>
<!-- q4&#45;&gt;q4 -->
<g id="edge9" class="edge">
<title>q4&#45;&gt;q4</title>
<path fill="none" stroke="#000000" d="M378.2939,-38.0201C377.072,-47.95 379.4688,-56.9965 385.4844,-56.9965 389.2442,-56.9965 391.5904,-53.4627 392.523,-48.3881"/>
<polygon fill="#000000" stroke="#000000" points="396.0279,-48.0703 392.675,-38.0201 389.0287,-47.9676 396.0279,-48.0703"/>
<text text-anchor="middle" x="385.4844" y="-60.7965" font-family="Times,serif" font-size="14.00" fill="#000000">b</text>
</g>
</g>
</svg>
