<?xml version="1.0" encoding="UTF-8" standalone="no"?>
<!DOCTYPE svg PUBLIC "-//W3C//DTD SVG 1.1//EN"
 "http://www.w3.org/Graphics/SVG/1.1/DTD/svg11.dtd">
<!-- Generated by graphviz version 2.40.1 (20161225.0304)
 -->
<!-- Title: G Pages: 1 -->
<svg width="289pt" height="45pt"
 viewBox="7.20 7.20 282.20 38.20" xmlns="http://www.w3.org/2000/svg" xmlns:xlink="http://www.w3.org/1999/xlink">
<g id="graph0" class="graph" transform="scale(1 1) rotate(0) translate(11.2 34.2)">
<title>G</title>
<polygon fill="#ffffff" stroke="transparent" points="-4,4 -4,-27 271,-27 271,4 -4,4"/>
<!-- 0 -->
<g id="node1" class="node">
<title>0</title>
<polygon fill="none" stroke="#000000" points="25,-23 0,-23 0,0 25,0 25,-23"/>
<text text-anchor="middle" x="12.5" y="-7.8" font-family="Times,serif" font-size="14.00" fill="#000000">if</text>
</g>
<!-- 1 -->
<g id="node2" class="node">
<title>1</title>
<polygon fill="none" stroke="#000000" points="51.5,-23 29.5,-23 29.5,0 51.5,0 51.5,-23"/>
<text text-anchor="middle" x="40.5" y="-7.8" font-family="Times,serif" font-size="14.00" fill="#000000">(</text>
</g>
<!-- 2 -->
<g id="node3" class="node">
<title>2</title>
<polygon fill="none" stroke="#000000" points="79,-23 56,-23 56,0 79,0 79,-23"/>
<text text-anchor="middle" x="67.5" y="-7.8" font-family="Times,serif" font-size="14.00" fill="#000000">a</text>
</g>
<!-- 3 -->
<g id="node4" class="node">
<title>3</title>
<polygon fill="none" stroke="#000000" points="116,-23 83,-23 83,0 116,0 116,-23"/>
<text text-anchor="middle" x="99.5" y="-7.8" font-family="Times,serif" font-size="14.00" fill="#000000">&lt;=</text>
</g>
<!-- 4 -->
<g id="node5" class="node">
<title>4</title>
<polygon fill="none" stroke="#000000" points="143,-23 120,-23 120,0 143,0 143,-23"/>
<text text-anchor="middle" x="131.5" y="-7.8" font-family="Times,serif" font-size="14.00" fill="#000000">0</text>
</g>
<!-- 5 -->
<g id="node6" class="node">
<title>5</title>
<polygon fill="none" stroke="#000000" points="169.5,-23 147.5,-23 147.5,0 169.5,0 169.5,-23"/>
<text text-anchor="middle" x="158.5" y="-7.8" font-family="Times,serif" font-size="14.00" fill="#000000">)</text>
</g>
<!-- 6 -->
<g id="node7" class="node">
<title>6</title>
<polygon fill="none" stroke="#000000" points="197,-23 174,-23 174,0 197,0 197,-23"/>
<text text-anchor="middle" x="185.5" y="-7.8" font-family="Times,serif" font-size="14.00" fill="#000000">b</text>
</g>
<!-- 7 -->
<g id="node8" class="node">
<title>7</title>
<polygon fill="none" stroke="#000000" points="239.5,-23 201.5,-23 201.5,0 239.5,0 239.5,-23"/>
<text text-anchor="middle" x="220.5" y="-7.8" font-family="Times,serif" font-size="14.00" fill="#000000">else</text>
</g>
<!-- 8 -->
<g id="node9" class="node">
<title>8</title>
<polygon fill="none" stroke="#000000" points="267,-23 244,-23 244,0 267,0 267,-23"/>
<text text-anchor="middle" x="255.5" y="-7.8" font-family="Times,serif" font-size="14.00" fill="#000000">c</text>
</g>
</g>
</svg>
