<?xml version="1.0" encoding="UTF-8" standalone="no"?>
<!DOCTYPE svg PUBLIC "-//W3C//DTD SVG 1.1//EN"
 "http://www.w3.org/Graphics/SVG/1.1/DTD/svg11.dtd">
<!-- Generated by graphviz version 2.40.1 (20161225.0304)
 -->
<!-- Title: G Pages: 1 -->
<svg width="284pt" height="58pt"
 viewBox="7.20 7.20 277.20 51.20" xmlns="http://www.w3.org/2000/svg" xmlns:xlink="http://www.w3.org/1999/xlink">
<g id="graph0" class="graph" transform="scale(1 1) rotate(0) translate(11.2 47.2)">
<title>G</title>
<polygon fill="#ffffff" stroke="transparent" points="-4,4 -4,-40 266,-40 266,4 -4,4"/>
<!-- 0 -->
<g id="node1" class="node">
<title>0</title>
<text text-anchor="middle" x="27" y="-14.3" font-family="Times,serif" font-size="14.00" fill="#000000">HULK</text>
</g>
<!-- 1 -->
<g id="node2" class="node">
<title>1</title>
<polygon fill="none" stroke="#000000" points="172,-36 90,-36 90,0 172,0 172,-36"/>
<text text-anchor="middle" x="131" y="-14.3" font-family="Times,serif" font-size="14.00" fill="#000000">Compilador</text>
</g>
<!-- 0&#45;&gt;1 -->
<g id="edge1" class="edge">
<title>0&#45;&gt;1</title>
<path fill="none" stroke="#000000" d="M54.0533,-18C62.0118,-18 70.9921,-18 79.9354,-18"/>
<polygon fill="#000000" stroke="#000000" points="79.9606,-21.5001 89.9606,-18 79.9606,-14.5001 79.9606,-21.5001"/>
</g>
<!-- 2 -->
<g id="node3" class="node">
<title>2</title>
<text text-anchor="middle" x="235" y="-14.3" font-family="Times,serif" font-size="14.00" fill="#000000">MIPS</text>
</g>
<!-- 1&#45;&gt;2 -->
<g id="edge2" class="edge">
<title>1&#45;&gt;2</title>
<path fill="none" stroke="#000000" d="M172.1036,-18C180.5669,-18 189.4334,-18 197.7509,-18"/>
<polygon fill="#000000" stroke="#000000" points="197.9213,-21.5001 207.9213,-18 197.9213,-14.5001 197.9213,-21.5001"/>
</g>
</g>
</svg>
