<?xml version="1.0" encoding="UTF-8" standalone="no"?>
<!DOCTYPE svg PUBLIC "-//W3C//DTD SVG 1.1//EN"
 "http://www.w3.org/Graphics/SVG/1.1/DTD/svg11.dtd">
<!-- Generated by graphviz version 2.40.1 (20161225.0304)
 -->
<!-- Title: G Pages: 1 -->
<svg width="278pt" height="188pt"
 viewBox="0.00 0.00 278.00 188.00" xmlns="http://www.w3.org/2000/svg" xmlns:xlink="http://www.w3.org/1999/xlink">
<g id="graph0" class="graph" transform="scale(1 1) rotate(0) translate(4 184)">
<title>G</title>
<polygon fill="#ffffff" stroke="transparent" points="-4,4 -4,-184 274,-184 274,4 -4,4"/>
<!-- a89460e3&#45;72a6&#45;420f&#45;b09a&#45;d294aa848866 -->
<g id="node1" class="node">
<title>a89460e3&#45;72a6&#45;420f&#45;b09a&#45;d294aa848866</title>
<ellipse fill="none" stroke="#000000" cx="99" cy="-162" rx="27" ry="18"/>
<text text-anchor="middle" x="99" y="-158.3" font-family="Times,serif" font-size="14.00" fill="#000000">T</text>
</g>
<!-- 83be9f68&#45;1d66&#45;4794&#45;a6e0&#45;dbdc33e2a0b6 -->
<g id="node2" class="node">
<title>83be9f68&#45;1d66&#45;4794&#45;a6e0&#45;dbdc33e2a0b6</title>
<ellipse fill="none" stroke="#000000" cx="27" cy="-90" rx="27" ry="18"/>
<text text-anchor="middle" x="27" y="-86.3" font-family="Times,serif" font-size="14.00" fill="#000000">int</text>
</g>
<!-- a89460e3&#45;72a6&#45;420f&#45;b09a&#45;d294aa848866&#45;&gt;83be9f68&#45;1d66&#45;4794&#45;a6e0&#45;dbdc33e2a0b6 -->
<g id="edge1" class="edge">
<title>a89460e3&#45;72a6&#45;420f&#45;b09a&#45;d294aa848866&#45;&gt;83be9f68&#45;1d66&#45;4794&#45;a6e0&#45;dbdc33e2a0b6</title>
<path fill="none" stroke="#000000" d="M83.7307,-146.7307C73.803,-136.803 60.6847,-123.6847 49.5637,-112.5637"/>
<polygon fill="#000000" stroke="#000000" points="51.7933,-109.8436 42.2473,-105.2473 46.8436,-114.7933 51.7933,-109.8436"/>
</g>
<!-- 55d2bcb9&#45;1c92&#45;4580&#45;893b&#45;5be09a94bac9 -->
<g id="node3" class="node">
<title>55d2bcb9&#45;1c92&#45;4580&#45;893b&#45;5be09a94bac9</title>
<ellipse fill="none" stroke="#000000" cx="99" cy="-90" rx="27" ry="18"/>
<text text-anchor="middle" x="99" y="-86.3" font-family="Times,serif" font-size="14.00" fill="#000000">*</text>
</g>
<!-- a89460e3&#45;72a6&#45;420f&#45;b09a&#45;d294aa848866&#45;&gt;55d2bcb9&#45;1c92&#45;4580&#45;893b&#45;5be09a94bac9 -->
<g id="edge2" class="edge">
<title>a89460e3&#45;72a6&#45;420f&#45;b09a&#45;d294aa848866&#45;&gt;55d2bcb9&#45;1c92&#45;4580&#45;893b&#45;5be09a94bac9</title>
<path fill="none" stroke="#000000" d="M99,-143.8314C99,-136.131 99,-126.9743 99,-118.4166"/>
<polygon fill="#000000" stroke="#000000" points="102.5001,-118.4132 99,-108.4133 95.5001,-118.4133 102.5001,-118.4132"/>
</g>
<!-- a6e9d808&#45;c707&#45;44f4&#45;9435&#45;816e0fec3bf7 -->
<g id="node4" class="node">
<title>a6e9d808&#45;c707&#45;44f4&#45;9435&#45;816e0fec3bf7</title>
<ellipse fill="none" stroke="#000000" cx="171" cy="-90" rx="27" ry="18"/>
<text text-anchor="middle" x="171" y="-86.3" font-family="Times,serif" font-size="14.00" fill="#000000">E</text>
</g>
<!-- a89460e3&#45;72a6&#45;420f&#45;b09a&#45;d294aa848866&#45;&gt;a6e9d808&#45;c707&#45;44f4&#45;9435&#45;816e0fec3bf7 -->
<g id="edge3" class="edge">
<title>a89460e3&#45;72a6&#45;420f&#45;b09a&#45;d294aa848866&#45;&gt;a6e9d808&#45;c707&#45;44f4&#45;9435&#45;816e0fec3bf7</title>
<path fill="none" stroke="#000000" d="M114.2693,-146.7307C124.197,-136.803 137.3153,-123.6847 148.4363,-112.5637"/>
<polygon fill="#000000" stroke="#000000" points="151.1564,-114.7933 155.7527,-105.2473 146.2067,-109.8436 151.1564,-114.7933"/>
</g>
<!-- 085021bd&#45;a609&#45;433a&#45;b3b8&#45;1e2822764684 -->
<g id="node5" class="node">
<title>085021bd&#45;a609&#45;433a&#45;b3b8&#45;1e2822764684</title>
<ellipse fill="none" stroke="#000000" cx="99" cy="-18" rx="27" ry="18"/>
<text text-anchor="middle" x="99" y="-14.3" font-family="Times,serif" font-size="14.00" fill="#000000">int</text>
</g>
<!-- a6e9d808&#45;c707&#45;44f4&#45;9435&#45;816e0fec3bf7&#45;&gt;085021bd&#45;a609&#45;433a&#45;b3b8&#45;1e2822764684 -->
<g id="edge4" class="edge">
<title>a6e9d808&#45;c707&#45;44f4&#45;9435&#45;816e0fec3bf7&#45;&gt;085021bd&#45;a609&#45;433a&#45;b3b8&#45;1e2822764684</title>
<path fill="none" stroke="#000000" d="M155.7307,-74.7307C145.803,-64.803 132.6847,-51.6847 121.5637,-40.5637"/>
<polygon fill="#000000" stroke="#000000" points="123.7933,-37.8436 114.2473,-33.2473 118.8436,-42.7933 123.7933,-37.8436"/>
</g>
<!-- a367e06c&#45;08a7&#45;4c7b&#45;b1a8&#45;e16393211e78 -->
<g id="node6" class="node">
<title>a367e06c&#45;08a7&#45;4c7b&#45;b1a8&#45;e16393211e78</title>
<ellipse fill="none" stroke="#000000" cx="171" cy="-18" rx="27" ry="18"/>
<text text-anchor="middle" x="171" y="-14.3" font-family="Times,serif" font-size="14.00" fill="#000000">+</text>
</g>
<!-- a6e9d808&#45;c707&#45;44f4&#45;9435&#45;816e0fec3bf7&#45;&gt;a367e06c&#45;08a7&#45;4c7b&#45;b1a8&#45;e16393211e78 -->
<g id="edge5" class="edge">
<title>a6e9d808&#45;c707&#45;44f4&#45;9435&#45;816e0fec3bf7&#45;&gt;a367e06c&#45;08a7&#45;4c7b&#45;b1a8&#45;e16393211e78</title>
<path fill="none" stroke="#000000" d="M171,-71.8314C171,-64.131 171,-54.9743 171,-46.4166"/>
<polygon fill="#000000" stroke="#000000" points="174.5001,-46.4132 171,-36.4133 167.5001,-46.4133 174.5001,-46.4132"/>
</g>
<!-- 1842fcf4&#45;6c64&#45;475a&#45;a1a6&#45;68e4acb59419 -->
<g id="node7" class="node">
<title>1842fcf4&#45;6c64&#45;475a&#45;a1a6&#45;68e4acb59419</title>
<ellipse fill="none" stroke="#000000" cx="243" cy="-18" rx="27" ry="18"/>
<text text-anchor="middle" x="243" y="-14.3" font-family="Times,serif" font-size="14.00" fill="#000000">int</text>
</g>
<!-- a6e9d808&#45;c707&#45;44f4&#45;9435&#45;816e0fec3bf7&#45;&gt;1842fcf4&#45;6c64&#45;475a&#45;a1a6&#45;68e4acb59419 -->
<g id="edge6" class="edge">
<title>a6e9d808&#45;c707&#45;44f4&#45;9435&#45;816e0fec3bf7&#45;&gt;1842fcf4&#45;6c64&#45;475a&#45;a1a6&#45;68e4acb59419</title>
<path fill="none" stroke="#000000" d="M186.2693,-74.7307C196.197,-64.803 209.3153,-51.6847 220.4363,-40.5637"/>
<polygon fill="#000000" stroke="#000000" points="223.1564,-42.7933 227.7527,-33.2473 218.2067,-37.8436 223.1564,-42.7933"/>
</g>
</g>
</svg>
