<?xml version="1.0" encoding="UTF-8" standalone="no"?>
<!DOCTYPE svg PUBLIC "-//W3C//DTD SVG 1.1//EN"
 "http://www.w3.org/Graphics/SVG/1.1/DTD/svg11.dtd">
<!-- Generated by graphviz version 2.40.1 (20161225.0304)
 -->
<!-- Title: G Pages: 1 -->
<svg width="242pt" height="188pt"
 viewBox="0.00 0.00 242.00 188.00" xmlns="http://www.w3.org/2000/svg" xmlns:xlink="http://www.w3.org/1999/xlink">
<g id="graph0" class="graph" transform="scale(1 1) rotate(0) translate(4 184)">
<title>G</title>
<polygon fill="#ffffff" stroke="transparent" points="-4,4 -4,-184 238,-184 238,4 -4,4"/>
<!-- 406ad417&#45;907e&#45;43b9&#45;9f01&#45;e6ff6b189632 -->
<g id="node1" class="node">
<title>406ad417&#45;907e&#45;43b9&#45;9f01&#45;e6ff6b189632</title>
<ellipse fill="none" stroke="#000000" cx="135" cy="-162" rx="44.393" ry="18"/>
<text text-anchor="middle" x="135" y="-158.3" font-family="Times,serif" font-size="14.00" fill="#000000">IF&#45;EXPR</text>
</g>
<!-- cd1bbfe8&#45;7193&#45;4db7&#45;8487&#45;abf667747a72 -->
<g id="node2" class="node">
<title>cd1bbfe8&#45;7193&#45;4db7&#45;8487&#45;abf667747a72</title>
<ellipse fill="none" stroke="#000000" cx="63" cy="-90" rx="27" ry="18"/>
<text text-anchor="middle" x="63" y="-86.3" font-family="Times,serif" font-size="14.00" fill="#000000">&lt;=</text>
</g>
<!-- 406ad417&#45;907e&#45;43b9&#45;9f01&#45;e6ff6b189632&#45;&gt;cd1bbfe8&#45;7193&#45;4db7&#45;8487&#45;abf667747a72 -->
<g id="edge1" class="edge">
<title>406ad417&#45;907e&#45;43b9&#45;9f01&#45;e6ff6b189632&#45;&gt;cd1bbfe8&#45;7193&#45;4db7&#45;8487&#45;abf667747a72</title>
<path fill="none" stroke="#000000" d="M118.3008,-145.3008C108.5397,-135.5397 96.0909,-123.0909 85.477,-112.477"/>
<polygon fill="#000000" stroke="#000000" points="87.6834,-109.7337 78.1374,-105.1374 82.7337,-114.6834 87.6834,-109.7337"/>
</g>
<!-- 972f0518&#45;1bae&#45;46e0&#45;b503&#45;41c10ff299cb -->
<g id="node5" class="node">
<title>972f0518&#45;1bae&#45;46e0&#45;b503&#45;41c10ff299cb</title>
<ellipse fill="none" stroke="#000000" cx="135" cy="-90" rx="27" ry="18"/>
<text text-anchor="middle" x="135" y="-86.3" font-family="Times,serif" font-size="14.00" fill="#000000">b</text>
</g>
<!-- 406ad417&#45;907e&#45;43b9&#45;9f01&#45;e6ff6b189632&#45;&gt;972f0518&#45;1bae&#45;46e0&#45;b503&#45;41c10ff299cb -->
<g id="edge4" class="edge">
<title>406ad417&#45;907e&#45;43b9&#45;9f01&#45;e6ff6b189632&#45;&gt;972f0518&#45;1bae&#45;46e0&#45;b503&#45;41c10ff299cb</title>
<path fill="none" stroke="#000000" d="M135,-143.8314C135,-136.131 135,-126.9743 135,-118.4166"/>
<polygon fill="#000000" stroke="#000000" points="138.5001,-118.4132 135,-108.4133 131.5001,-118.4133 138.5001,-118.4132"/>
</g>
<!-- e094a912&#45;c988&#45;43c4&#45;a10b&#45;ebc7f899ecfe -->
<g id="node6" class="node">
<title>e094a912&#45;c988&#45;43c4&#45;a10b&#45;ebc7f899ecfe</title>
<ellipse fill="none" stroke="#000000" cx="207" cy="-90" rx="27" ry="18"/>
<text text-anchor="middle" x="207" y="-86.3" font-family="Times,serif" font-size="14.00" fill="#000000">c</text>
</g>
<!-- 406ad417&#45;907e&#45;43b9&#45;9f01&#45;e6ff6b189632&#45;&gt;e094a912&#45;c988&#45;43c4&#45;a10b&#45;ebc7f899ecfe -->
<g id="edge5" class="edge">
<title>406ad417&#45;907e&#45;43b9&#45;9f01&#45;e6ff6b189632&#45;&gt;e094a912&#45;c988&#45;43c4&#45;a10b&#45;ebc7f899ecfe</title>
<path fill="none" stroke="#000000" d="M151.6992,-145.3008C161.4603,-135.5397 173.9091,-123.0909 184.523,-112.477"/>
<polygon fill="#000000" stroke="#000000" points="187.2663,-114.6834 191.8626,-105.1374 182.3166,-109.7337 187.2663,-114.6834"/>
</g>
<!-- cc27044e&#45;9228&#45;436a&#45;bc75&#45;88fe75d49942 -->
<g id="node3" class="node">
<title>cc27044e&#45;9228&#45;436a&#45;bc75&#45;88fe75d49942</title>
<ellipse fill="none" stroke="#000000" cx="27" cy="-18" rx="27" ry="18"/>
<text text-anchor="middle" x="27" y="-14.3" font-family="Times,serif" font-size="14.00" fill="#000000">a</text>
</g>
<!-- cd1bbfe8&#45;7193&#45;4db7&#45;8487&#45;abf667747a72&#45;&gt;cc27044e&#45;9228&#45;436a&#45;bc75&#45;88fe75d49942 -->
<g id="edge2" class="edge">
<title>cd1bbfe8&#45;7193&#45;4db7&#45;8487&#45;abf667747a72&#45;&gt;cc27044e&#45;9228&#45;436a&#45;bc75&#45;88fe75d49942</title>
<path fill="none" stroke="#000000" d="M54.2854,-72.5708C50.0403,-64.0807 44.8464,-53.6929 40.1337,-44.2674"/>
<polygon fill="#000000" stroke="#000000" points="43.237,-42.6477 35.6343,-35.2687 36.976,-45.7782 43.237,-42.6477"/>
</g>
<!-- 596920a2&#45;0f57&#45;4464&#45;b2e9&#45;3bbf19b6324c -->
<g id="node4" class="node">
<title>596920a2&#45;0f57&#45;4464&#45;b2e9&#45;3bbf19b6324c</title>
<ellipse fill="none" stroke="#000000" cx="99" cy="-18" rx="27" ry="18"/>
<text text-anchor="middle" x="99" y="-14.3" font-family="Times,serif" font-size="14.00" fill="#000000">0</text>
</g>
<!-- cd1bbfe8&#45;7193&#45;4db7&#45;8487&#45;abf667747a72&#45;&gt;596920a2&#45;0f57&#45;4464&#45;b2e9&#45;3bbf19b6324c -->
<g id="edge3" class="edge">
<title>cd1bbfe8&#45;7193&#45;4db7&#45;8487&#45;abf667747a72&#45;&gt;596920a2&#45;0f57&#45;4464&#45;b2e9&#45;3bbf19b6324c</title>
<path fill="none" stroke="#000000" d="M71.7146,-72.5708C75.9597,-64.0807 81.1536,-53.6929 85.8663,-44.2674"/>
<polygon fill="#000000" stroke="#000000" points="89.024,-45.7782 90.3657,-35.2687 82.763,-42.6477 89.024,-45.7782"/>
</g>
</g>
</svg>
