<?xml version="1.0" encoding="UTF-8" standalone="no"?>
<!DOCTYPE svg PUBLIC "-//W3C//DTD SVG 1.1//EN"
 "http://www.w3.org/Graphics/SVG/1.1/DTD/svg11.dtd">
<!-- Generated by graphviz version 2.40.1 (20161225.0304)
 -->
<!-- Title: G Pages: 1 -->
<svg width="278pt" height="476pt"
 viewBox="0.00 0.00 278.00 476.00" xmlns="http://www.w3.org/2000/svg" xmlns:xlink="http://www.w3.org/1999/xlink">
<g id="graph0" class="graph" transform="scale(1 1) rotate(0) translate(4 472)">
<title>G</title>
<polygon fill="#ffffff" stroke="transparent" points="-4,4 -4,-472 274,-472 274,4 -4,4"/>
<!-- 0221ab40&#45;aae3&#45;4284&#45;9363&#45;b15919b1c8c5 -->
<g id="node1" class="node">
<title>0221ab40&#45;aae3&#45;4284&#45;9363&#45;b15919b1c8c5</title>
<ellipse fill="none" stroke="#000000" cx="99" cy="-450" rx="27" ry="18"/>
<text text-anchor="middle" x="99" y="-446.3" font-family="Times,serif" font-size="14.00" fill="#000000">E</text>
</g>
<!-- 17bd37d2&#45;ca03&#45;4a88&#45;9a84&#45;b215600ae58b -->
<g id="node2" class="node">
<title>17bd37d2&#45;ca03&#45;4a88&#45;9a84&#45;b215600ae58b</title>
<ellipse fill="none" stroke="#000000" cx="99" cy="-378" rx="27" ry="18"/>
<text text-anchor="middle" x="99" y="-374.3" font-family="Times,serif" font-size="14.00" fill="#000000">T</text>
</g>
<!-- 0221ab40&#45;aae3&#45;4284&#45;9363&#45;b15919b1c8c5&#45;&gt;17bd37d2&#45;ca03&#45;4a88&#45;9a84&#45;b215600ae58b -->
<g id="edge1" class="edge">
<title>0221ab40&#45;aae3&#45;4284&#45;9363&#45;b15919b1c8c5&#45;&gt;17bd37d2&#45;ca03&#45;4a88&#45;9a84&#45;b215600ae58b</title>
<path fill="none" stroke="#000000" d="M99,-431.8314C99,-424.131 99,-414.9743 99,-406.4166"/>
<polygon fill="#000000" stroke="#000000" points="102.5001,-406.4132 99,-396.4133 95.5001,-406.4133 102.5001,-406.4132"/>
</g>
<!-- 8429410e&#45;f0ce&#45;4796&#45;9892&#45;a697a2fe56ba -->
<g id="node3" class="node">
<title>8429410e&#45;f0ce&#45;4796&#45;9892&#45;a697a2fe56ba</title>
<ellipse fill="none" stroke="#000000" cx="27" cy="-306" rx="27" ry="18"/>
<text text-anchor="middle" x="27" y="-302.3" font-family="Times,serif" font-size="14.00" fill="#000000">int</text>
</g>
<!-- 17bd37d2&#45;ca03&#45;4a88&#45;9a84&#45;b215600ae58b&#45;&gt;8429410e&#45;f0ce&#45;4796&#45;9892&#45;a697a2fe56ba -->
<g id="edge2" class="edge">
<title>17bd37d2&#45;ca03&#45;4a88&#45;9a84&#45;b215600ae58b&#45;&gt;8429410e&#45;f0ce&#45;4796&#45;9892&#45;a697a2fe56ba</title>
<path fill="none" stroke="#000000" d="M83.7307,-362.7307C73.803,-352.803 60.6847,-339.6847 49.5637,-328.5637"/>
<polygon fill="#000000" stroke="#000000" points="51.7933,-325.8436 42.2473,-321.2473 46.8436,-330.7933 51.7933,-325.8436"/>
</g>
<!-- 2c6c2de3&#45;1213&#45;4da2&#45;a6ff&#45;afe041eef67f -->
<g id="node4" class="node">
<title>2c6c2de3&#45;1213&#45;4da2&#45;a6ff&#45;afe041eef67f</title>
<ellipse fill="none" stroke="#000000" cx="99" cy="-306" rx="27" ry="18"/>
<text text-anchor="middle" x="99" y="-302.3" font-family="Times,serif" font-size="14.00" fill="#000000">*</text>
</g>
<!-- 17bd37d2&#45;ca03&#45;4a88&#45;9a84&#45;b215600ae58b&#45;&gt;2c6c2de3&#45;1213&#45;4da2&#45;a6ff&#45;afe041eef67f -->
<g id="edge3" class="edge">
<title>17bd37d2&#45;ca03&#45;4a88&#45;9a84&#45;b215600ae58b&#45;&gt;2c6c2de3&#45;1213&#45;4da2&#45;a6ff&#45;afe041eef67f</title>
<path fill="none" stroke="#000000" d="M99,-359.8314C99,-352.131 99,-342.9743 99,-334.4166"/>
<polygon fill="#000000" stroke="#000000" points="102.5001,-334.4132 99,-324.4133 95.5001,-334.4133 102.5001,-334.4132"/>
</g>
<!-- eadc9190&#45;1591&#45;45ce&#45;9afa&#45;b5c370b664be -->
<g id="node5" class="node">
<title>eadc9190&#45;1591&#45;45ce&#45;9afa&#45;b5c370b664be</title>
<ellipse fill="none" stroke="#000000" cx="171" cy="-306" rx="27" ry="18"/>
<text text-anchor="middle" x="171" y="-302.3" font-family="Times,serif" font-size="14.00" fill="#000000">T</text>
</g>
<!-- 17bd37d2&#45;ca03&#45;4a88&#45;9a84&#45;b215600ae58b&#45;&gt;eadc9190&#45;1591&#45;45ce&#45;9afa&#45;b5c370b664be -->
<g id="edge4" class="edge">
<title>17bd37d2&#45;ca03&#45;4a88&#45;9a84&#45;b215600ae58b&#45;&gt;eadc9190&#45;1591&#45;45ce&#45;9afa&#45;b5c370b664be</title>
<path fill="none" stroke="#000000" d="M114.2693,-362.7307C124.197,-352.803 137.3153,-339.6847 148.4363,-328.5637"/>
<polygon fill="#000000" stroke="#000000" points="151.1564,-330.7933 155.7527,-321.2473 146.2067,-325.8436 151.1564,-330.7933"/>
</g>
<!-- 81caadc2&#45;cecc&#45;4e2a&#45;b21b&#45;8c63bcdcf911 -->
<g id="node6" class="node">
<title>81caadc2&#45;cecc&#45;4e2a&#45;b21b&#45;8c63bcdcf911</title>
<ellipse fill="none" stroke="#000000" cx="99" cy="-234" rx="27" ry="18"/>
<text text-anchor="middle" x="99" y="-230.3" font-family="Times,serif" font-size="14.00" fill="#000000">(</text>
</g>
<!-- eadc9190&#45;1591&#45;45ce&#45;9afa&#45;b5c370b664be&#45;&gt;81caadc2&#45;cecc&#45;4e2a&#45;b21b&#45;8c63bcdcf911 -->
<g id="edge5" class="edge">
<title>eadc9190&#45;1591&#45;45ce&#45;9afa&#45;b5c370b664be&#45;&gt;81caadc2&#45;cecc&#45;4e2a&#45;b21b&#45;8c63bcdcf911</title>
<path fill="none" stroke="#000000" d="M155.7307,-290.7307C145.803,-280.803 132.6847,-267.6847 121.5637,-256.5637"/>
<polygon fill="#000000" stroke="#000000" points="123.7933,-253.8436 114.2473,-249.2473 118.8436,-258.7933 123.7933,-253.8436"/>
</g>
<!-- 0c30e633&#45;846f&#45;463d&#45;a338&#45;bb54829ebf6e -->
<g id="node7" class="node">
<title>0c30e633&#45;846f&#45;463d&#45;a338&#45;bb54829ebf6e</title>
<ellipse fill="none" stroke="#000000" cx="171" cy="-234" rx="27" ry="18"/>
<text text-anchor="middle" x="171" y="-230.3" font-family="Times,serif" font-size="14.00" fill="#000000">E</text>
</g>
<!-- eadc9190&#45;1591&#45;45ce&#45;9afa&#45;b5c370b664be&#45;&gt;0c30e633&#45;846f&#45;463d&#45;a338&#45;bb54829ebf6e -->
<g id="edge6" class="edge">
<title>eadc9190&#45;1591&#45;45ce&#45;9afa&#45;b5c370b664be&#45;&gt;0c30e633&#45;846f&#45;463d&#45;a338&#45;bb54829ebf6e</title>
<path fill="none" stroke="#000000" d="M171,-287.8314C171,-280.131 171,-270.9743 171,-262.4166"/>
<polygon fill="#000000" stroke="#000000" points="174.5001,-262.4132 171,-252.4133 167.5001,-262.4133 174.5001,-262.4132"/>
</g>
<!-- e26209d7&#45;d6c4&#45;4dbe&#45;8daf&#45;dbc2016c579b -->
<g id="node14" class="node">
<title>e26209d7&#45;d6c4&#45;4dbe&#45;8daf&#45;dbc2016c579b</title>
<ellipse fill="none" stroke="#000000" cx="243" cy="-234" rx="27" ry="18"/>
<text text-anchor="middle" x="243" y="-230.3" font-family="Times,serif" font-size="14.00" fill="#000000">)</text>
</g>
<!-- eadc9190&#45;1591&#45;45ce&#45;9afa&#45;b5c370b664be&#45;&gt;e26209d7&#45;d6c4&#45;4dbe&#45;8daf&#45;dbc2016c579b -->
<g id="edge13" class="edge">
<title>eadc9190&#45;1591&#45;45ce&#45;9afa&#45;b5c370b664be&#45;&gt;e26209d7&#45;d6c4&#45;4dbe&#45;8daf&#45;dbc2016c579b</title>
<path fill="none" stroke="#000000" d="M186.2693,-290.7307C196.197,-280.803 209.3153,-267.6847 220.4363,-256.5637"/>
<polygon fill="#000000" stroke="#000000" points="223.1564,-258.7933 227.7527,-249.2473 218.2067,-253.8436 223.1564,-258.7933"/>
</g>
<!-- 9701132c&#45;f3c7&#45;43f8&#45;aeae&#45;4149be0c6769 -->
<g id="node8" class="node">
<title>9701132c&#45;f3c7&#45;43f8&#45;aeae&#45;4149be0c6769</title>
<ellipse fill="none" stroke="#000000" cx="99" cy="-162" rx="27" ry="18"/>
<text text-anchor="middle" x="99" y="-158.3" font-family="Times,serif" font-size="14.00" fill="#000000">T</text>
</g>
<!-- 0c30e633&#45;846f&#45;463d&#45;a338&#45;bb54829ebf6e&#45;&gt;9701132c&#45;f3c7&#45;43f8&#45;aeae&#45;4149be0c6769 -->
<g id="edge7" class="edge">
<title>0c30e633&#45;846f&#45;463d&#45;a338&#45;bb54829ebf6e&#45;&gt;9701132c&#45;f3c7&#45;43f8&#45;aeae&#45;4149be0c6769</title>
<path fill="none" stroke="#000000" d="M155.7307,-218.7307C145.803,-208.803 132.6847,-195.6847 121.5637,-184.5637"/>
<polygon fill="#000000" stroke="#000000" points="123.7933,-181.8436 114.2473,-177.2473 118.8436,-186.7933 123.7933,-181.8436"/>
</g>
<!-- e65f47b5&#45;da4d&#45;4155&#45;863e&#45;668f6b01b0ba -->
<g id="node10" class="node">
<title>e65f47b5&#45;da4d&#45;4155&#45;863e&#45;668f6b01b0ba</title>
<ellipse fill="none" stroke="#000000" cx="171" cy="-162" rx="27" ry="18"/>
<text text-anchor="middle" x="171" y="-158.3" font-family="Times,serif" font-size="14.00" fill="#000000">+</text>
</g>
<!-- 0c30e633&#45;846f&#45;463d&#45;a338&#45;bb54829ebf6e&#45;&gt;e65f47b5&#45;da4d&#45;4155&#45;863e&#45;668f6b01b0ba -->
<g id="edge9" class="edge">
<title>0c30e633&#45;846f&#45;463d&#45;a338&#45;bb54829ebf6e&#45;&gt;e65f47b5&#45;da4d&#45;4155&#45;863e&#45;668f6b01b0ba</title>
<path fill="none" stroke="#000000" d="M171,-215.8314C171,-208.131 171,-198.9743 171,-190.4166"/>
<polygon fill="#000000" stroke="#000000" points="174.5001,-190.4132 171,-180.4133 167.5001,-190.4133 174.5001,-190.4132"/>
</g>
<!-- 35b13b5f&#45;4e8e&#45;4e99&#45;9592&#45;547d153169b0 -->
<g id="node11" class="node">
<title>35b13b5f&#45;4e8e&#45;4e99&#45;9592&#45;547d153169b0</title>
<ellipse fill="none" stroke="#000000" cx="243" cy="-162" rx="27" ry="18"/>
<text text-anchor="middle" x="243" y="-158.3" font-family="Times,serif" font-size="14.00" fill="#000000">E</text>
</g>
<!-- 0c30e633&#45;846f&#45;463d&#45;a338&#45;bb54829ebf6e&#45;&gt;35b13b5f&#45;4e8e&#45;4e99&#45;9592&#45;547d153169b0 -->
<g id="edge10" class="edge">
<title>0c30e633&#45;846f&#45;463d&#45;a338&#45;bb54829ebf6e&#45;&gt;35b13b5f&#45;4e8e&#45;4e99&#45;9592&#45;547d153169b0</title>
<path fill="none" stroke="#000000" d="M186.2693,-218.7307C196.197,-208.803 209.3153,-195.6847 220.4363,-184.5637"/>
<polygon fill="#000000" stroke="#000000" points="223.1564,-186.7933 227.7527,-177.2473 218.2067,-181.8436 223.1564,-186.7933"/>
</g>
<!-- 2956d283&#45;70c0&#45;4ac2&#45;a1c6&#45;c82c0291bc46 -->
<g id="node9" class="node">
<title>2956d283&#45;70c0&#45;4ac2&#45;a1c6&#45;c82c0291bc46</title>
<ellipse fill="none" stroke="#000000" cx="99" cy="-90" rx="27" ry="18"/>
<text text-anchor="middle" x="99" y="-86.3" font-family="Times,serif" font-size="14.00" fill="#000000">int</text>
</g>
<!-- 9701132c&#45;f3c7&#45;43f8&#45;aeae&#45;4149be0c6769&#45;&gt;2956d283&#45;70c0&#45;4ac2&#45;a1c6&#45;c82c0291bc46 -->
<g id="edge8" class="edge">
<title>9701132c&#45;f3c7&#45;43f8&#45;aeae&#45;4149be0c6769&#45;&gt;2956d283&#45;70c0&#45;4ac2&#45;a1c6&#45;c82c0291bc46</title>
<path fill="none" stroke="#000000" d="M99,-143.8314C99,-136.131 99,-126.9743 99,-118.4166"/>
<polygon fill="#000000" stroke="#000000" points="102.5001,-118.4132 99,-108.4133 95.5001,-118.4133 102.5001,-118.4132"/>
</g>
<!-- 5cb8e20a&#45;3e36&#45;4104&#45;be9b&#45;3d0a336493d0 -->
<g id="node12" class="node">
<title>5cb8e20a&#45;3e36&#45;4104&#45;be9b&#45;3d0a336493d0</title>
<ellipse fill="none" stroke="#000000" cx="243" cy="-90" rx="27" ry="18"/>
<text text-anchor="middle" x="243" y="-86.3" font-family="Times,serif" font-size="14.00" fill="#000000">T</text>
</g>
<!-- 35b13b5f&#45;4e8e&#45;4e99&#45;9592&#45;547d153169b0&#45;&gt;5cb8e20a&#45;3e36&#45;4104&#45;be9b&#45;3d0a336493d0 -->
<g id="edge11" class="edge">
<title>35b13b5f&#45;4e8e&#45;4e99&#45;9592&#45;547d153169b0&#45;&gt;5cb8e20a&#45;3e36&#45;4104&#45;be9b&#45;3d0a336493d0</title>
<path fill="none" stroke="#000000" d="M243,-143.8314C243,-136.131 243,-126.9743 243,-118.4166"/>
<polygon fill="#000000" stroke="#000000" points="246.5001,-118.4132 243,-108.4133 239.5001,-118.4133 246.5001,-118.4132"/>
</g>
<!-- 1d731085&#45;b3f5&#45;4b7a&#45;ac1f&#45;ece5d025e152 -->
<g id="node13" class="node">
<title>1d731085&#45;b3f5&#45;4b7a&#45;ac1f&#45;ece5d025e152</title>
<ellipse fill="none" stroke="#000000" cx="243" cy="-18" rx="27" ry="18"/>
<text text-anchor="middle" x="243" y="-14.3" font-family="Times,serif" font-size="14.00" fill="#000000">int</text>
</g>
<!-- 5cb8e20a&#45;3e36&#45;4104&#45;be9b&#45;3d0a336493d0&#45;&gt;1d731085&#45;b3f5&#45;4b7a&#45;ac1f&#45;ece5d025e152 -->
<g id="edge12" class="edge">
<title>5cb8e20a&#45;3e36&#45;4104&#45;be9b&#45;3d0a336493d0&#45;&gt;1d731085&#45;b3f5&#45;4b7a&#45;ac1f&#45;ece5d025e152</title>
<path fill="none" stroke="#000000" d="M243,-71.8314C243,-64.131 243,-54.9743 243,-46.4166"/>
<polygon fill="#000000" stroke="#000000" points="246.5001,-46.4132 243,-36.4133 239.5001,-46.4133 246.5001,-46.4132"/>
</g>
</g>
</svg>
