<?xml version="1.0" encoding="UTF-8" standalone="no"?>
<!DOCTYPE svg PUBLIC "-//W3C//DTD SVG 1.1//EN"
 "http://www.w3.org/Graphics/SVG/1.1/DTD/svg11.dtd">
<!-- Generated by graphviz version 2.40.1 (20161225.0304)
 -->
<!-- Title: G Pages: 1 -->
<svg width="480pt" height="91pt"
 viewBox="7.20 7.20 473.20 84.20" xmlns="http://www.w3.org/2000/svg" xmlns:xlink="http://www.w3.org/1999/xlink">
<g id="graph0" class="graph" transform="scale(1 1) rotate(0) translate(11.2 80.2)">
<title>G</title>
<polygon fill="#ffffff" stroke="transparent" points="-4,4 -4,-73 462,-73 462,4 -4,4"/>
<!-- 0 -->
<g id="node1" class="node">
<title>0</title>
<text text-anchor="middle" x="27" y="-14.3" font-family="Times,serif" font-size="14.00" fill="#000000">HULK</text>
</g>
<!-- 1 -->
<g id="node2" class="node">
<title>1</title>
<polygon fill="none" stroke="#000000" points="145,-36 91,-36 91,0 145,0 145,-36"/>
<text text-anchor="middle" x="118" y="-14.3" font-family="Times,serif" font-size="14.00" fill="#000000">Parser</text>
</g>
<!-- 0&#45;&gt;1 -->
<g id="edge1" class="edge">
<title>0&#45;&gt;1</title>
<path fill="none" stroke="#000000" d="M54.303,-18C62.5813,-18 71.8217,-18 80.6405,-18"/>
<polygon fill="#000000" stroke="#000000" points="80.7163,-21.5001 90.7163,-18 80.7162,-14.5001 80.7163,-21.5001"/>
</g>
<!-- 2 -->
<g id="node3" class="node">
<title>2</title>
<polygon fill="none" stroke="#000000" points="256,-36 182,-36 182,0 256,0 256,-36"/>
<text text-anchor="middle" x="219" y="-14.3" font-family="Times,serif" font-size="14.00" fill="#000000">Semántico</text>
</g>
<!-- 1&#45;&gt;2 -->
<g id="edge2" class="edge">
<title>1&#45;&gt;2</title>
<path fill="none" stroke="#000000" d="M145.0661,-18C153.3024,-18 162.6072,-18 171.768,-18"/>
<polygon fill="#000000" stroke="#000000" points="171.985,-21.5001 181.985,-18 171.9849,-14.5001 171.985,-21.5001"/>
</g>
<!-- 3 -->
<g id="node4" class="node">
<title>3</title>
<polygon fill="none" stroke="#000000" points="367,-36 293,-36 293,0 367,0 367,-36"/>
<text text-anchor="middle" x="330" y="-14.3" font-family="Times,serif" font-size="14.00" fill="#000000">Generador</text>
</g>
<!-- 2&#45;&gt;3 -->
<g id="edge3" class="edge">
<title>2&#45;&gt;3</title>
<path fill="none" stroke="#000000" d="M256.2702,-18C264.6901,-18 273.7397,-18 282.5161,-18"/>
<polygon fill="#000000" stroke="#000000" points="282.6393,-21.5001 292.6392,-18 282.6392,-14.5001 282.6393,-21.5001"/>
</g>
<!-- 3&#45;&gt;3 -->
<g id="edge5" class="edge">
<title>3&#45;&gt;3</title>
<path fill="none" stroke="#000000" d="M320.231,-36.1527C318.728,-45.5391 321.9844,-54 330,-54 334.8845,-54 338.0017,-50.8581 339.3517,-46.2796"/>
<polygon fill="#000000" stroke="#000000" points="342.8542,-46.2884 339.769,-36.1527 335.8601,-46.0001 342.8542,-46.2884"/>
<text text-anchor="middle" x="330" y="-57.8" font-family="Times,serif" font-size="14.00" fill="#000000">Optimización</text>
</g>
<!-- 4 -->
<g id="node5" class="node">
<title>4</title>
<text text-anchor="middle" x="431" y="-14.3" font-family="Times,serif" font-size="14.00" fill="#000000">MIPS</text>
</g>
<!-- 3&#45;&gt;4 -->
<g id="edge4" class="edge">
<title>3&#45;&gt;4</title>
<path fill="none" stroke="#000000" d="M367.0352,-18C375.6807,-18 384.8941,-18 393.5572,-18"/>
<polygon fill="#000000" stroke="#000000" points="393.7761,-21.5001 403.7761,-18 393.776,-14.5001 393.7761,-21.5001"/>
</g>
</g>
</svg>
