<?xml version="1.0" encoding="UTF-8" standalone="no"?>
<!DOCTYPE svg PUBLIC "-//W3C//DTD SVG 1.1//EN"
 "http://www.w3.org/Graphics/SVG/1.1/DTD/svg11.dtd">
<!-- Generated by graphviz version 2.40.1 (20161225.0304)
 -->
<!-- Title: G Pages: 1 -->
<svg width="350pt" height="260pt"
 viewBox="0.00 0.00 350.30 260.00" xmlns="http://www.w3.org/2000/svg" xmlns:xlink="http://www.w3.org/1999/xlink">
<g id="graph0" class="graph" transform="scale(1 1) rotate(0) translate(4 256)">
<title>G</title>
<polygon fill="#ffffff" stroke="transparent" points="-4,4 -4,-256 346.2976,-256 346.2976,4 -4,4"/>
<!-- 53107e30&#45;4050&#45;443e&#45;87ce&#45;fc9d21295aec -->
<g id="node1" class="node">
<title>53107e30&#45;4050&#45;443e&#45;87ce&#45;fc9d21295aec</title>
<ellipse fill="none" stroke="#000000" cx="135" cy="-234" rx="50.0912" ry="18"/>
<text text-anchor="start" x="104.5" y="-230.3" font-family="Times,serif" font-size="14.00" fill="#000000">decl&#45;assign</text>
</g>
<!-- c900b514&#45;c7ee&#45;403b&#45;b4c2&#45;ae5dba10c1ae -->
<g id="node2" class="node">
<title>c900b514&#45;c7ee&#45;403b&#45;b4c2&#45;ae5dba10c1ae</title>
<ellipse fill="none" stroke="#000000" cx="27" cy="-162" rx="27" ry="18"/>
<text text-anchor="start" x="15" y="-158.3" font-family="Times,serif" font-size="14.00" fill="#000000">type</text>
</g>
<!-- 53107e30&#45;4050&#45;443e&#45;87ce&#45;fc9d21295aec&#45;&gt;c900b514&#45;c7ee&#45;403b&#45;b4c2&#45;ae5dba10c1ae -->
<g id="edge1" class="edge">
<title>53107e30&#45;4050&#45;443e&#45;87ce&#45;fc9d21295aec&#45;&gt;c900b514&#45;c7ee&#45;403b&#45;b4c2&#45;ae5dba10c1ae</title>
<path fill="none" stroke="#000000" d="M111.0313,-218.0209C94.4146,-206.9431 72.2351,-192.1567 54.8351,-180.5568"/>
<polygon fill="#000000" stroke="#000000" points="56.4885,-177.4526 46.2265,-174.8177 52.6056,-183.2769 56.4885,-177.4526"/>
</g>
<!-- 47416dcc&#45;f5ea&#45;4591&#45;81a7&#45;d54174c360a8 -->
<g id="node3" class="node">
<title>47416dcc&#45;f5ea&#45;4591&#45;81a7&#45;d54174c360a8</title>
<ellipse fill="none" stroke="#000000" cx="99" cy="-162" rx="27" ry="18"/>
<text text-anchor="start" x="93.5" y="-158.3" font-family="Times,serif" font-size="14.00" fill="#000000">id</text>
</g>
<!-- 53107e30&#45;4050&#45;443e&#45;87ce&#45;fc9d21295aec&#45;&gt;47416dcc&#45;f5ea&#45;4591&#45;81a7&#45;d54174c360a8 -->
<g id="edge2" class="edge">
<title>53107e30&#45;4050&#45;443e&#45;87ce&#45;fc9d21295aec&#45;&gt;47416dcc&#45;f5ea&#45;4591&#45;81a7&#45;d54174c360a8</title>
<path fill="none" stroke="#000000" d="M126.1011,-216.2022C121.8978,-207.7955 116.7959,-197.5917 112.1575,-188.3149"/>
<polygon fill="#000000" stroke="#000000" points="115.1513,-186.4762 107.5486,-179.0972 108.8903,-189.6068 115.1513,-186.4762"/>
</g>
<!-- b7d59974&#45;8838&#45;41b9&#45;9eb3&#45;84cf3e26a03d -->
<g id="node4" class="node">
<title>b7d59974&#45;8838&#45;41b9&#45;9eb3&#45;84cf3e26a03d</title>
<ellipse fill="none" stroke="#000000" cx="171" cy="-162" rx="27" ry="18"/>
<text text-anchor="middle" x="171" y="-158.3" font-family="Times,serif" font-size="14.00" fill="#000000">=</text>
</g>
<!-- 53107e30&#45;4050&#45;443e&#45;87ce&#45;fc9d21295aec&#45;&gt;b7d59974&#45;8838&#45;41b9&#45;9eb3&#45;84cf3e26a03d -->
<g id="edge3" class="edge">
<title>53107e30&#45;4050&#45;443e&#45;87ce&#45;fc9d21295aec&#45;&gt;b7d59974&#45;8838&#45;41b9&#45;9eb3&#45;84cf3e26a03d</title>
<path fill="none" stroke="#000000" d="M143.8989,-216.2022C148.1022,-207.7955 153.2041,-197.5917 157.8425,-188.3149"/>
<polygon fill="#000000" stroke="#000000" points="161.1097,-189.6068 162.4514,-179.0972 154.8487,-186.4762 161.1097,-189.6068"/>
</g>
<!-- aa89f134&#45;845a&#45;4281&#45;bf95&#45;53d27de3b7e5 -->
<g id="node5" class="node">
<title>aa89f134&#45;845a&#45;4281&#45;bf95&#45;53d27de3b7e5</title>
<ellipse fill="none" stroke="#000000" cx="243" cy="-162" rx="27" ry="18"/>
<text text-anchor="start" x="230.5" y="-158.3" font-family="Times,serif" font-size="14.00" fill="#000000">expr</text>
</g>
<!-- 53107e30&#45;4050&#45;443e&#45;87ce&#45;fc9d21295aec&#45;&gt;aa89f134&#45;845a&#45;4281&#45;bf95&#45;53d27de3b7e5 -->
<g id="edge4" class="edge">
<title>53107e30&#45;4050&#45;443e&#45;87ce&#45;fc9d21295aec&#45;&gt;aa89f134&#45;845a&#45;4281&#45;bf95&#45;53d27de3b7e5</title>
<path fill="none" stroke="#000000" d="M158.9687,-218.0209C175.5854,-206.9431 197.7649,-192.1567 215.1649,-180.5568"/>
<polygon fill="#000000" stroke="#000000" points="217.3944,-183.2769 223.7735,-174.8177 213.5115,-177.4526 217.3944,-183.2769"/>
</g>
<!-- ac2ed122&#45;f7ee&#45;4e4f&#45;95f3&#45;8c14581efb3b -->
<g id="node6" class="node">
<title>ac2ed122&#45;f7ee&#45;4e4f&#45;95f3&#45;8c14581efb3b</title>
<ellipse fill="none" stroke="#000000" cx="171" cy="-90" rx="27.0966" ry="18"/>
<text text-anchor="start" x="158" y="-86.3" font-family="Times,serif" font-size="14.00" fill="#000000">term</text>
</g>
<!-- aa89f134&#45;845a&#45;4281&#45;bf95&#45;53d27de3b7e5&#45;&gt;ac2ed122&#45;f7ee&#45;4e4f&#45;95f3&#45;8c14581efb3b -->
<g id="edge5" class="edge">
<title>aa89f134&#45;845a&#45;4281&#45;bf95&#45;53d27de3b7e5&#45;&gt;ac2ed122&#45;f7ee&#45;4e4f&#45;95f3&#45;8c14581efb3b</title>
<path fill="none" stroke="#000000" d="M227.7307,-146.7307C217.803,-136.803 204.6847,-123.6847 193.5637,-112.5637"/>
<polygon fill="#000000" stroke="#000000" points="195.7933,-109.8436 186.2473,-105.2473 190.8436,-114.7933 195.7933,-109.8436"/>
</g>
<!-- e8d1f79b&#45;438c&#45;4256&#45;9adc&#45;029e1933564f -->
<g id="node8" class="node">
<title>e8d1f79b&#45;438c&#45;4256&#45;9adc&#45;029e1933564f</title>
<ellipse fill="none" stroke="#000000" cx="243" cy="-90" rx="27" ry="18"/>
<text text-anchor="middle" x="243" y="-86.3" font-family="Times,serif" font-size="14.00" fill="#000000">+</text>
</g>
<!-- aa89f134&#45;845a&#45;4281&#45;bf95&#45;53d27de3b7e5&#45;&gt;e8d1f79b&#45;438c&#45;4256&#45;9adc&#45;029e1933564f -->
<g id="edge7" class="edge">
<title>aa89f134&#45;845a&#45;4281&#45;bf95&#45;53d27de3b7e5&#45;&gt;e8d1f79b&#45;438c&#45;4256&#45;9adc&#45;029e1933564f</title>
<path fill="none" stroke="#000000" d="M243,-143.8314C243,-136.131 243,-126.9743 243,-118.4166"/>
<polygon fill="#000000" stroke="#000000" points="246.5001,-118.4132 243,-108.4133 239.5001,-118.4133 246.5001,-118.4132"/>
</g>
<!-- 94fc5b97&#45;7ffe&#45;42ef&#45;a8d7&#45;b0cba2b610f2 -->
<g id="node9" class="node">
<title>94fc5b97&#45;7ffe&#45;42ef&#45;a8d7&#45;b0cba2b610f2</title>
<ellipse fill="none" stroke="#000000" cx="315" cy="-90" rx="27.0966" ry="18"/>
<text text-anchor="start" x="302" y="-86.3" font-family="Times,serif" font-size="14.00" fill="#000000">term</text>
</g>
<!-- aa89f134&#45;845a&#45;4281&#45;bf95&#45;53d27de3b7e5&#45;&gt;94fc5b97&#45;7ffe&#45;42ef&#45;a8d7&#45;b0cba2b610f2 -->
<g id="edge8" class="edge">
<title>aa89f134&#45;845a&#45;4281&#45;bf95&#45;53d27de3b7e5&#45;&gt;94fc5b97&#45;7ffe&#45;42ef&#45;a8d7&#45;b0cba2b610f2</title>
<path fill="none" stroke="#000000" d="M258.2693,-146.7307C268.197,-136.803 281.3153,-123.6847 292.4363,-112.5637"/>
<polygon fill="#000000" stroke="#000000" points="295.1564,-114.7933 299.7527,-105.2473 290.2067,-109.8436 295.1564,-114.7933"/>
</g>
<!-- 2b3d8e38&#45;4634&#45;405b&#45;8893&#45;605787e11fa1 -->
<g id="node7" class="node">
<title>2b3d8e38&#45;4634&#45;405b&#45;8893&#45;605787e11fa1</title>
<ellipse fill="none" stroke="#000000" cx="171" cy="-18" rx="27" ry="18"/>
<text text-anchor="start" x="165.5" y="-14.3" font-family="Times,serif" font-size="14.00" fill="#000000">id</text>
</g>
<!-- ac2ed122&#45;f7ee&#45;4e4f&#45;95f3&#45;8c14581efb3b&#45;&gt;2b3d8e38&#45;4634&#45;405b&#45;8893&#45;605787e11fa1 -->
<g id="edge6" class="edge">
<title>ac2ed122&#45;f7ee&#45;4e4f&#45;95f3&#45;8c14581efb3b&#45;&gt;2b3d8e38&#45;4634&#45;405b&#45;8893&#45;605787e11fa1</title>
<path fill="none" stroke="#000000" d="M171,-71.8314C171,-64.131 171,-54.9743 171,-46.4166"/>
<polygon fill="#000000" stroke="#000000" points="174.5001,-46.4132 171,-36.4133 167.5001,-46.4133 174.5001,-46.4132"/>
</g>
<!-- bded8631&#45;1bb6&#45;4ed5&#45;b5a5&#45;023784bf5150 -->
<g id="node10" class="node">
<title>bded8631&#45;1bb6&#45;4ed5&#45;b5a5&#45;023784bf5150</title>
<ellipse fill="none" stroke="#000000" cx="315" cy="-18" rx="27" ry="18"/>
<text text-anchor="start" x="309.5" y="-14.3" font-family="Times,serif" font-size="14.00" fill="#000000">id</text>
</g>
<!-- 94fc5b97&#45;7ffe&#45;42ef&#45;a8d7&#45;b0cba2b610f2&#45;&gt;bded8631&#45;1bb6&#45;4ed5&#45;b5a5&#45;023784bf5150 -->
<g id="edge9" class="edge">
<title>94fc5b97&#45;7ffe&#45;42ef&#45;a8d7&#45;b0cba2b610f2&#45;&gt;bded8631&#45;1bb6&#45;4ed5&#45;b5a5&#45;023784bf5150</title>
<path fill="none" stroke="#000000" d="M315,-71.8314C315,-64.131 315,-54.9743 315,-46.4166"/>
<polygon fill="#000000" stroke="#000000" points="318.5001,-46.4132 315,-36.4133 311.5001,-46.4133 318.5001,-46.4132"/>
</g>
</g>
</svg>
