<?xml version="1.0" encoding="UTF-8" standalone="no"?>
<!DOCTYPE svg PUBLIC "-//W3C//DTD SVG 1.1//EN"
 "http://www.w3.org/Graphics/SVG/1.1/DTD/svg11.dtd">
<!-- Generated by graphviz version 2.40.1 (20161225.0304)
 -->
<!-- Title: G Pages: 1 -->
<svg width="99pt" height="94pt"
 viewBox="7.20 7.20 92.20 87.20" xmlns="http://www.w3.org/2000/svg" xmlns:xlink="http://www.w3.org/1999/xlink">
<g id="graph0" class="graph" transform="scale(1 1) rotate(0) translate(11.2 83.1965)">
<title>G</title>
<polygon fill="#ffffff" stroke="transparent" points="-4,4 -4,-75.9965 80.9965,-75.9965 80.9965,4 -4,4"/>
<!-- start -->
<g id="node1" class="node">
<title>start</title>
</g>
<!-- q0 -->
<g id="node2" class="node">
<title>q0</title>
<ellipse fill="none" stroke="#000000" stroke-width="2" cx="57.4983" cy="-19.4983" rx="19.4965" ry="19.4965"/>
<text text-anchor="middle" x="57.4983" y="-15.7983" font-family="Times,serif" font-size="14.00" fill="#000000">q0</text>
</g>
<!-- start&#45;&gt;q0 -->
<g id="edge2" class="edge">
<title>start&#45;&gt;q0</title>
<path fill="none" stroke="#000000" stroke-dasharray="5,2" d="M1.1401,-19.4983C3.9684,-19.4983 15.7387,-19.4983 27.7966,-19.4983"/>
<polygon fill="#000000" stroke="#000000" points="27.8029,-22.9984 37.8029,-19.4983 27.8029,-15.9984 27.8029,-22.9984"/>
</g>
<!-- q0&#45;&gt;q0 -->
<g id="edge1" class="edge">
<title>q0&#45;&gt;q0</title>
<path fill="none" stroke="#000000" d="M51.0268,-38.0201C49.927,-47.95 52.0842,-56.9965 57.4983,-56.9965 60.8821,-56.9965 62.9936,-53.4627 63.833,-48.3881"/>
<polygon fill="#000000" stroke="#000000" points="67.3374,-48.0654 63.9698,-38.0201 60.338,-47.973 67.3374,-48.0654"/>
<text text-anchor="middle" x="57.4983" y="-60.7965" font-family="Times,serif" font-size="14.00" fill="#000000">a b c</text>
</g>
</g>
</svg>
