<?xml version="1.0" encoding="UTF-8" standalone="no"?>
<!DOCTYPE svg PUBLIC "-//W3C//DTD SVG 1.1//EN"
 "http://www.w3.org/Graphics/SVG/1.1/DTD/svg11.dtd">
<!-- Generated by graphviz version 2.40.1 (20161225.0304)
 -->
<!-- Title: G Pages: 1 -->
<svg width="382pt" height="58pt"
 viewBox="7.20 7.20 375.20 51.20" xmlns="http://www.w3.org/2000/svg" xmlns:xlink="http://www.w3.org/1999/xlink">
<g id="graph0" class="graph" transform="scale(1 1) rotate(0) translate(11.2 47.2)">
<title>G</title>
<polygon fill="#ffffff" stroke="transparent" points="-4,4 -4,-40 364,-40 364,4 -4,4"/>
<!-- 0 -->
<g id="node1" class="node">
<title>0</title>
<text text-anchor="middle" x="27" y="-14.3" font-family="Times,serif" font-size="14.00" fill="#000000">HULK</text>
</g>
<!-- 1 -->
<g id="node2" class="node">
<title>1</title>
<polygon fill="none" stroke="#000000" points="145,-36 91,-36 91,0 145,0 145,-36"/>
<text text-anchor="middle" x="118" y="-14.3" font-family="Times,serif" font-size="14.00" fill="#000000">Parser</text>
</g>
<!-- 0&#45;&gt;1 -->
<g id="edge1" class="edge">
<title>0&#45;&gt;1</title>
<path fill="none" stroke="#000000" d="M54.303,-18C62.5813,-18 71.8217,-18 80.6405,-18"/>
<polygon fill="#000000" stroke="#000000" points="80.7163,-21.5001 90.7163,-18 80.7162,-14.5001 80.7163,-21.5001"/>
</g>
<!-- 2 -->
<g id="node3" class="node">
<title>2</title>
<polygon fill="none" stroke="#000000" points="269,-36 195,-36 195,0 269,0 269,-36"/>
<text text-anchor="middle" x="232" y="-14.3" font-family="Times,serif" font-size="14.00" fill="#000000">Generador</text>
</g>
<!-- 1&#45;&gt;2 -->
<g id="edge2" class="edge">
<title>1&#45;&gt;2</title>
<path fill="none" stroke="#000000" d="M145.0164,-18C156.8742,-18 171.1522,-18 184.6807,-18"/>
<polygon fill="#000000" stroke="#000000" points="184.8274,-21.5001 194.8274,-18 184.8274,-14.5001 184.8274,-21.5001"/>
<text text-anchor="middle" x="170" y="-21.8" font-family="Times,serif" font-size="14.00" fill="#000000">IR</text>
</g>
<!-- 3 -->
<g id="node4" class="node">
<title>3</title>
<text text-anchor="middle" x="333" y="-14.3" font-family="Times,serif" font-size="14.00" fill="#000000">MIPS</text>
</g>
<!-- 2&#45;&gt;3 -->
<g id="edge3" class="edge">
<title>2&#45;&gt;3</title>
<path fill="none" stroke="#000000" d="M269.0352,-18C277.6807,-18 286.8941,-18 295.5572,-18"/>
<polygon fill="#000000" stroke="#000000" points="295.7761,-21.5001 305.7761,-18 295.776,-14.5001 295.7761,-21.5001"/>
</g>
</g>
</svg>
