<?xml version="1.0" encoding="UTF-8" standalone="no"?>
<!DOCTYPE svg PUBLIC "-//W3C//DTD SVG 1.1//EN"
 "http://www.w3.org/Graphics/SVG/1.1/DTD/svg11.dtd">
<!-- Generated by graphviz version 2.40.1 (20161225.0304)
 -->
<!-- Title: G Pages: 1 -->
<svg width="571pt" height="91pt"
 viewBox="7.20 7.20 564.20 84.20" xmlns="http://www.w3.org/2000/svg" xmlns:xlink="http://www.w3.org/1999/xlink">
<g id="graph0" class="graph" transform="scale(1 1) rotate(0) translate(11.2 80.2)">
<title>G</title>
<polygon fill="#ffffff" stroke="transparent" points="-4,4 -4,-73 553,-73 553,4 -4,4"/>
<!-- 0 -->
<g id="node1" class="node">
<title>0</title>
<text text-anchor="middle" x="27" y="-14.3" font-family="Times,serif" font-size="14.00" fill="#000000">HULK</text>
</g>
<!-- 1 -->
<g id="node2" class="node">
<title>1</title>
<polygon fill="none" stroke="#000000" points="145,-36 91,-36 91,0 145,0 145,-36"/>
<text text-anchor="middle" x="118" y="-14.3" font-family="Times,serif" font-size="14.00" fill="#000000">Lexer</text>
</g>
<!-- 0&#45;&gt;1 -->
<g id="edge1" class="edge">
<title>0&#45;&gt;1</title>
<path fill="none" stroke="#000000" d="M54.303,-18C62.5813,-18 71.8217,-18 80.6405,-18"/>
<polygon fill="#000000" stroke="#000000" points="80.7163,-21.5001 90.7163,-18 80.7162,-14.5001 80.7163,-21.5001"/>
</g>
<!-- 2 -->
<g id="node3" class="node">
<title>2</title>
<polygon fill="none" stroke="#000000" points="236,-36 182,-36 182,0 236,0 236,-36"/>
<text text-anchor="middle" x="209" y="-14.3" font-family="Times,serif" font-size="14.00" fill="#000000">Parser</text>
</g>
<!-- 1&#45;&gt;2 -->
<g id="edge2" class="edge">
<title>1&#45;&gt;2</title>
<path fill="none" stroke="#000000" d="M145.303,-18C153.5813,-18 162.8217,-18 171.6405,-18"/>
<polygon fill="#000000" stroke="#000000" points="171.7163,-21.5001 181.7163,-18 171.7162,-14.5001 171.7163,-21.5001"/>
</g>
<!-- 3 -->
<g id="node4" class="node">
<title>3</title>
<polygon fill="none" stroke="#000000" points="347,-36 273,-36 273,0 347,0 347,-36"/>
<text text-anchor="middle" x="310" y="-14.3" font-family="Times,serif" font-size="14.00" fill="#000000">Semántico</text>
</g>
<!-- 2&#45;&gt;3 -->
<g id="edge3" class="edge">
<title>2&#45;&gt;3</title>
<path fill="none" stroke="#000000" d="M236.0661,-18C244.3024,-18 253.6072,-18 262.768,-18"/>
<polygon fill="#000000" stroke="#000000" points="262.985,-21.5001 272.985,-18 262.9849,-14.5001 262.985,-21.5001"/>
</g>
<!-- 4 -->
<g id="node5" class="node">
<title>4</title>
<polygon fill="none" stroke="#000000" points="458,-36 384,-36 384,0 458,0 458,-36"/>
<text text-anchor="middle" x="421" y="-14.3" font-family="Times,serif" font-size="14.00" fill="#000000">Generador</text>
</g>
<!-- 3&#45;&gt;4 -->
<g id="edge4" class="edge">
<title>3&#45;&gt;4</title>
<path fill="none" stroke="#000000" d="M347.2702,-18C355.6901,-18 364.7397,-18 373.5161,-18"/>
<polygon fill="#000000" stroke="#000000" points="373.6393,-21.5001 383.6392,-18 373.6392,-14.5001 373.6393,-21.5001"/>
</g>
<!-- 4&#45;&gt;4 -->
<g id="edge5" class="edge">
<title>4&#45;&gt;4</title>
<path fill="none" stroke="#000000" d="M411.231,-36.1527C409.728,-45.5391 412.9844,-54 421,-54 425.8845,-54 429.0017,-50.8581 430.3517,-46.2796"/>
<polygon fill="#000000" stroke="#000000" points="433.8542,-46.2884 430.769,-36.1527 426.8601,-46.0001 433.8542,-46.2884"/>
<text text-anchor="middle" x="421" y="-57.8" font-family="Times,serif" font-size="14.00" fill="#000000">Optimización</text>
</g>
<!-- 5 -->
<g id="node6" class="node">
<title>5</title>
<text text-anchor="middle" x="522" y="-14.3" font-family="Times,serif" font-size="14.00" fill="#000000">MIPS</text>
</g>
<!-- 4&#45;&gt;5 -->
<g id="edge6" class="edge">
<title>4&#45;&gt;5</title>
<path fill="none" stroke="#000000" d="M458.0352,-18C466.6807,-18 475.8941,-18 484.5572,-18"/>
<polygon fill="#000000" stroke="#000000" points="484.7761,-21.5001 494.7761,-18 484.776,-14.5001 484.7761,-21.5001"/>
</g>
</g>
</svg>
