<?xml version="1.0" encoding="UTF-8" standalone="no"?>
<!DOCTYPE svg PUBLIC "-//W3C//DTD SVG 1.1//EN"
 "http://www.w3.org/Graphics/SVG/1.1/DTD/svg11.dtd">
<!-- Generated by graphviz version 2.40.1 (20161225.0304)
 -->
<!-- Title: G Pages: 1 -->
<svg width="263pt" height="111pt"
 viewBox="7.20 7.20 256.19 104.20" xmlns="http://www.w3.org/2000/svg" xmlns:xlink="http://www.w3.org/1999/xlink">
<g id="graph0" class="graph" transform="scale(1 1) rotate(0) translate(11.2 100.1965)">
<title>G</title>
<polygon fill="#ffffff" stroke="transparent" points="-4,4 -4,-92.9965 244.9896,-92.9965 244.9896,4 -4,4"/>
<!-- start -->
<g id="node1" class="node">
<title>start</title>
</g>
<!-- q0 -->
<g id="node2" class="node">
<title>q0</title>
<ellipse fill="none" stroke="#000000" cx="57.4983" cy="-36.4983" rx="19.4965" ry="19.4965"/>
<text text-anchor="middle" x="57.4983" y="-32.7983" font-family="Times,serif" font-size="14.00" fill="#000000">q0</text>
</g>
<!-- start&#45;&gt;q0 -->
<g id="edge7" class="edge">
<title>start&#45;&gt;q0</title>
<path fill="none" stroke="#000000" stroke-dasharray="5,2" d="M1.1401,-36.4983C3.9684,-36.4983 15.7387,-36.4983 27.7966,-36.4983"/>
<polygon fill="#000000" stroke="#000000" points="27.8029,-39.9984 37.8029,-36.4983 27.8029,-32.9984 27.8029,-39.9984"/>
</g>
<!-- q0&#45;&gt;q0 -->
<g id="edge2" class="edge">
<title>q0&#45;&gt;q0</title>
<path fill="none" stroke="#000000" d="M51.0268,-55.0201C49.927,-64.95 52.0842,-73.9965 57.4983,-73.9965 60.8821,-73.9965 62.9936,-70.4627 63.833,-65.3881"/>
<polygon fill="#000000" stroke="#000000" points="67.3374,-65.0654 63.9698,-55.0201 60.338,-64.973 67.3374,-65.0654"/>
<text text-anchor="middle" x="57.4983" y="-77.7965" font-family="Times,serif" font-size="14.00" fill="#000000">b</text>
</g>
<!-- q1 -->
<g id="node3" class="node">
<title>q1</title>
<ellipse fill="none" stroke="#000000" cx="139.4948" cy="-55.4983" rx="19.4965" ry="19.4965"/>
<text text-anchor="middle" x="139.4948" y="-51.7983" font-family="Times,serif" font-size="14.00" fill="#000000">q1</text>
</g>
<!-- q0&#45;&gt;q1 -->
<g id="edge1" class="edge">
<title>q0&#45;&gt;q1</title>
<path fill="none" stroke="#000000" d="M75.01,-45.4112C81.1752,-48.1574 88.2513,-50.8811 94.9965,-52.4983 99.6107,-53.6045 104.5657,-54.353 109.4339,-54.8517"/>
<polygon fill="#000000" stroke="#000000" points="109.5639,-58.3697 119.7866,-55.5862 110.0594,-51.3872 109.5639,-58.3697"/>
<text text-anchor="middle" x="98.4965" y="-57.2983" font-family="Times,serif" font-size="14.00" fill="#000000">a</text>
</g>
<!-- q1&#45;&gt;q0 -->
<g id="edge4" class="edge">
<title>q1&#45;&gt;q0</title>
<path fill="none" stroke="#000000" d="M123.5459,-43.6175C117.1807,-39.5731 109.5717,-35.5564 101.9965,-33.4983 97.2051,-32.1965 92.022,-31.7351 86.9442,-31.7747"/>
<polygon fill="#000000" stroke="#000000" points="86.5723,-28.2917 76.8281,-32.4512 87.0394,-35.2761 86.5723,-28.2917"/>
<text text-anchor="middle" x="98.4965" y="-37.2983" font-family="Times,serif" font-size="14.00" fill="#000000">b</text>
</g>
<!-- q2 -->
<g id="node4" class="node">
<title>q2</title>
<ellipse fill="none" stroke="#000000" stroke-width="2" cx="221.4913" cy="-19.4983" rx="19.4965" ry="19.4965"/>
<text text-anchor="middle" x="221.4913" y="-15.7983" font-family="Times,serif" font-size="14.00" fill="#000000">q2</text>
</g>
<!-- q1&#45;&gt;q2 -->
<g id="edge3" class="edge">
<title>q1&#45;&gt;q2</title>
<path fill="none" stroke="#000000" d="M157.6925,-47.5087C168.4889,-42.7686 182.3784,-36.6705 194.4397,-31.3751"/>
<polygon fill="#000000" stroke="#000000" points="195.8773,-34.5665 203.6266,-27.3416 193.0632,-28.157 195.8773,-34.5665"/>
<text text-anchor="middle" x="180.4931" y="-42.2983" font-family="Times,serif" font-size="14.00" fill="#000000">a</text>
</g>
<!-- q2&#45;&gt;q0 -->
<g id="edge6" class="edge">
<title>q2&#45;&gt;q0</title>
<path fill="none" stroke="#000000" d="M202.247,-15.3201C181.7107,-11.5229 148.304,-7.2499 119.9965,-12.4983 107.922,-14.737 95.1684,-19.2158 84.3531,-23.7044"/>
<polygon fill="#000000" stroke="#000000" points="82.808,-20.5599 75.0407,-27.7654 85.6061,-26.9763 82.808,-20.5599"/>
<text text-anchor="middle" x="139.4948" y="-16.2983" font-family="Times,serif" font-size="14.00" fill="#000000">b</text>
</g>
<!-- q2&#45;&gt;q2 -->
<g id="edge5" class="edge">
<title>q2&#45;&gt;q2</title>
<path fill="none" stroke="#000000" d="M214.3008,-38.0201C213.0789,-47.95 215.4757,-56.9965 221.4913,-56.9965 225.2511,-56.9965 227.5973,-53.4627 228.5299,-48.3881"/>
<polygon fill="#000000" stroke="#000000" points="232.0348,-48.0703 228.6819,-38.0201 225.0356,-47.9676 232.0348,-48.0703"/>
<text text-anchor="middle" x="221.4913" y="-60.7965" font-family="Times,serif" font-size="14.00" fill="#000000">a</text>
</g>
</g>
</svg>
